<?xml version="1.0" encoding="utf-8"?>
<!-- Generator: Adobe Illustrator 25.4.1, SVG Export Plug-In . SVG Version: 6.00 Build 0)  -->
<svg version="1.1" id="Layer_1" xmlns="http://www.w3.org/2000/svg" xmlns:xlink="http://www.w3.org/1999/xlink" x="0px" y="0px"
	 viewBox="0 0 2630.43 1284.17" style="enable-background:new 0 0 2630.43 1284.17;" xml:space="preserve">
<style type="text/css">
	.st0{fill:#AE9587;}
	.st1{fill:#937260;}
	.st2{fill:#233862;}
	.st3{fill:#FFFFFF;}
	.st4{fill:#699DEE;}
	.st5{fill:#1C468A;}
	.st6{fill:#A8D29F;}
	.st7{fill:#D1C4A9;}
	.st8{fill:#F1A34F;}
	.st9{fill:#F99746;}
	.st10{fill:#D86713;}
	.st11{fill:#82B479;}
	.st12{fill:#82B378;}
	.st13{fill:#FFB973;}
	.st14{fill:#D1A586;}
	.st15{fill:#E5BD9E;}
	.st16{fill:#DFB697;}
	.st17{fill:#A0795F;}
	.st18{fill:#FFB27D;}
	.st19{fill:#E2915A;}
	.st20{fill:#2B478B;}
	.st21{fill:#E9F3FE;}
	.st22{fill:#22407A;}
	.st23{fill:#D9E9F9;}
	.st24{fill:#BA4C43;}
	.st25{fill:#C65447;}
	.st26{fill:#EEEEEE;}
	.st27{fill:#B5453C;}
	.st28{fill:#ED975D;}
	.st29{fill:#FFB9E8;}
	.st30{fill:#FFDE92;}
	.st31{fill:#AA413E;}
	.st32{fill:#E7F1FD;}
	.st33{fill:#4A75CB;}
	.st34{fill:#C69D7F;}
	.st35{fill:#E0B594;}
	.st36{fill:#D1C6C6;}
</style>
<g>
	<g>
		<g>
			<path class="st0" d="M2483.12,1245.11H81.21c0,0-2.36-40.51-3.05-76.92c-3.42-183.79,39.58-383.23,159.56-520.71
				c93.78-107.48,241.5-186.21,473.3-183.9c55.65,0.54,112.17-1.28,166.45-6.28l0.12-0.01c267.75-24.62,401.9-116.43,523.87-205.98
				c61.6-45.24,272.11-219.49,519.64-192.3c48.49,5.33,91.38,22.58,127.32,49.88c93.51,71.03,139.97,210,115.65,383.48
				c-16.46,117.49,20.73,181.19,84.43,222.83C2424.81,830.51,2658.24,817.92,2483.12,1245.11z"/>
			<polygon class="st1" points="1544.91,1245.41 1544.91,777.55 1491.19,777.55 1491.19,723.91 1478.61,723.91 1478.61,631.67 
				1411.18,631.67 1411.18,723.91 1348.14,723.91 1348.14,573.61 1278.57,573.61 1278.57,671.18 1262.71,671.18 1262.71,554.7 
				1193.14,554.7 1193.14,773.09 1105.16,773.09 1105.16,900.44 1072.29,900.44 1072.29,843.75 996.78,843.75 996.78,877.28 
				953.43,877.28 953.43,727.16 899.88,727.16 899.88,838.27 846.32,838.27 846.32,1245.41 			"/>
			<polygon class="st1" points="2425.97,961.93 2425.97,1245.41 1571.15,1245.41 1571.15,998.72 1622.89,998.72 1622.89,931.39 
				1674.64,931.39 1674.64,1022.36 1716.54,1022.36 1716.54,1002.03 1789.5,1002.03 1789.5,1036.38 1821.28,1036.38 1821.28,959.22 
				1906.3,959.22 1906.3,826.89 1973.52,826.89 1973.52,897.47 1988.85,897.47 1988.85,838.35 2056.08,838.35 2056.08,929.42 
				2116.99,929.42 2116.99,873.53 2361.9,873.53 2361.9,929.42 2374.05,929.42 2374.05,961.93 			"/>
			<polygon class="st1" points="853.17,850.79 853.17,1243.98 237.71,1243.98 237.71,901.83 284.89,901.83 284.89,808.46 
				332.07,808.46 332.07,934.61 370.26,934.61 370.26,906.42 436.8,906.42 436.8,954.07 465.75,954.07 465.75,847.05 543.26,847.05 
				543.26,663.53 604.55,663.53 604.55,761.41 618.52,761.41 618.52,679.41 679.81,679.41 679.81,805.72 735.36,805.72 
				735.36,728.21 794.77,728.21 794.77,805.72 805.84,805.72 805.84,850.79 			"/>
			<path class="st1" d="M1581.18,132.07v1110.76h-36.27V152.23C1556.68,145.25,1568.75,138.52,1581.18,132.07z"/>
			<polygon class="st1" points="877.58,457.29 877.58,1227.14 877.58,1242.84 841.33,1242.84 841.33,1227.14 841.33,460.15 			"/>
		</g>
		<g>
			<g>
				<path class="st2" d="M1141.34,1077.29h1116.09c9.7,0,18.15-6.59,20.51-16l127.39-507.48l10.07-40.14l8.6-34.24l13.55-54
					c3.35-13.35-6.74-26.29-20.51-26.29H1300.53l-22.13,80.29l-9.44,34.24l-11.07,40.14l-136.94,496.72
					C1117.24,1063.99,1127.37,1077.29,1141.34,1077.29z"/>
				<path class="st3" d="M1126.01,1077.29H2242.1c9.7,0,18.15-6.59,20.51-16L2390,553.81l10.07-40.14l8.6-34.24l13.55-54
					c3.35-13.35-6.74-26.29-20.51-26.29H1285.2l-22.13,80.29l-9.44,34.24l-11.06,40.14l-136.94,496.72
					C1101.91,1063.99,1112.04,1077.29,1126.01,1077.29z"/>
				<path class="st4" d="M1285.2,399.13h1116.52c13.77,0,23.86,12.94,20.51,26.29l-13.55,54h-1145.6L1285.2,399.13z"/>
				<g>
					<path class="st5" d="M2373.98,425.38c5.54,0,8.92,4.49,7.54,10.04c-1.38,5.54-7,10.04-12.54,10.04
						c-5.54,0-8.92-4.49-7.53-10.04C2362.82,429.87,2368.44,425.38,2373.98,425.38z"/>
					<path class="st5" d="M2340.63,425.38c5.54,0,8.92,4.49,7.53,10.04c-1.38,5.54-7,10.04-12.54,10.04s-8.92-4.49-7.54-10.04
						C2329.48,429.87,2335.09,425.38,2340.63,425.38z"/>
					<path class="st5" d="M2292.18,435.42c1.38-5.54,7-10.04,12.54-10.04c5.54,0,8.92,4.49,7.53,10.04
						c-1.38,5.54-7,10.04-12.54,10.04S2290.8,440.96,2292.18,435.42z"/>
				</g>
				<g>
					<path class="st4" d="M1596.2,886.8h-400.15c-3.85,0-7.23,2.54-8.3,6.24l0,0c-1.6,5.53,2.55,11.05,8.3,11.05h400.15
						c3.85,0,7.23-2.54,8.31-6.24l0,0C1606.11,892.32,1601.96,886.8,1596.2,886.8z"/>
					<path class="st6" d="M2071.46,847.34h-866.01c-3.85,0-7.23,2.54-8.3,6.24l0,0c-1.6,5.53,2.55,11.05,8.3,11.05h866.01
						c3.85,0,7.23-2.54,8.3-6.24v0C2081.36,852.86,2077.21,847.34,2071.46,847.34z"/>
					<path class="st7" d="M1779.16,807.89h-563.9c-3.85,0-7.23,2.54-8.31,6.24l0,0c-1.6,5.53,2.55,11.05,8.31,11.05h563.9
						c3.85,0,7.23-2.54,8.3-6.24l0,0C1789.07,813.41,1784.92,807.89,1779.16,807.89z"/>
					<path class="st8" d="M1683.22,598.81h-400.15c-3.85,0-7.23,2.54-8.3,6.24l0,0c-1.6,5.53,2.55,11.05,8.3,11.05h400.15
						c3.85,0,7.23-2.54,8.3-6.24l0,0C1693.13,604.34,1688.98,598.81,1683.22,598.81z"/>
					<path class="st7" d="M1866.18,519.91h-563.9c-3.85,0-7.23,2.54-8.3,6.24l0,0c-1.6,5.53,2.55,11.05,8.3,11.05h563.9
						c3.85,0,7.23-2.54,8.3-6.24l0,0C1876.09,525.43,1871.94,519.91,1866.18,519.91z"/>
					<path class="st9" d="M1563.12,750.11h-332c-3.85,0-7.23,2.54-8.3,6.24l0,0c-1.6,5.53,2.55,11.05,8.3,11.05h332
						c3.85,0,7.23-2.54,8.3-6.24l0,0C1573.03,755.63,1568.88,750.11,1563.12,750.11z"/>
				</g>
			</g>
			<g>
				<g>
					<path class="st10" d="M2265.56,598.81h128.96c16.59,0,30.05,13.45,30.05,30.05v128.96c0,16.59-13.45,30.05-30.05,30.05h-128.96
						c-16.6,0-30.05-13.45-30.05-30.05V628.86C2235.52,612.27,2248.97,598.81,2265.56,598.81z"/>
					<path class="st8" d="M2240.52,598.81h128.96c16.6,0,30.05,13.45,30.05,30.05v128.96c0,16.59-13.45,30.05-30.05,30.05h-128.96
						c-16.6,0-30.05-13.45-30.05-30.05V628.86C2210.47,612.27,2223.93,598.81,2240.52,598.81z"/>
				</g>
				<g>
					<path class="st3" d="M2390.96,695.87l-58.65,27.25v-12.95l44.35-19.43v-0.24l-44.35-19.43v-12.95l58.65,27.25V695.87z"/>
					<path class="st3" d="M2323.27,645.24l-26.15,88.59h-12.34l26.15-88.59H2323.27z"/>
					<path class="st3" d="M2219.04,685l58.65-26.88v12.95l-45.33,19.43v0.24l45.33,19.43v12.95l-58.65-26.88V685z"/>
				</g>
			</g>
			<g>
				<path class="st11" d="M1179.43,304.6h128.96c16.6,0,30.05,13.45,30.05,30.05v128.96c0,16.6-13.45,30.05-30.05,30.05h-128.96
					c-16.6,0-30.05-13.45-30.05-30.05V334.65C1149.38,318.06,1162.83,304.6,1179.43,304.6z"/>
				<path class="st6" d="M1154.39,304.6h128.96c16.6,0,30.05,13.45,30.05,30.05v128.96c0,16.6-13.45,30.05-30.05,30.05h-128.96
					c-16.6,0-30.05-13.45-30.05-30.05V334.65C1124.34,318.06,1137.79,304.6,1154.39,304.6z"/>
				<g>
					<path class="st3" d="M1283.59,405.32c-11,0.32-12.12,6.06-12.12,10.84c0,3.99,0.48,8.13,0.96,12.44
						c0.48,4.31,0.8,8.61,0.8,12.6c0,14.99-9.41,21.53-24.24,21.53h-5.58v-13.55h2.87c7.18,0,9.73-4.3,9.73-11.32
						c0-2.87-0.48-5.74-0.8-9.09c-0.32-3.19-0.8-6.86-0.8-10.84c-0.16-12.12,4.78-16.58,13.55-18.5v-0.32
						c-8.77-1.91-13.71-6.54-13.55-18.66c0-4.14,0.48-7.81,0.8-11.16c0.32-3.19,0.8-6.22,0.8-8.93c0-7.02-2.39-11.48-9.73-11.48
						h-2.87v-13.39h5.74c14.19,0,24.08,5.74,24.08,21.68c0,3.99-0.32,8.29-0.8,12.6c-0.48,4.3-0.96,8.45-0.96,12.44
						c0,4.46,1.12,10.52,12.12,10.84V405.32z"/>
					<path class="st3" d="M1160.82,393.04c10.84-0.32,12.12-6.38,12.12-10.84c0-3.99-0.48-8.13-0.96-12.44
						c-0.48-4.31-0.96-8.61-0.96-12.6c0-15.94,9.88-21.68,24.23-21.68h5.74v13.39h-2.87c-7.33,0.16-9.73,4.46-9.73,11.48
						c0,2.71,0.32,5.74,0.8,8.93c0.32,3.35,0.8,7.02,0.8,11.16c0.16,12.12-4.78,16.74-13.71,18.66v0.32
						c8.93,1.91,13.87,6.38,13.71,18.5c0,3.99-0.48,7.65-0.8,10.84c-0.48,3.35-0.8,6.22-0.8,9.09c0,7.02,2.55,11.16,9.73,11.32h2.87
						v13.55h-5.58c-14.99,0-24.39-6.54-24.39-21.53c0-3.99,0.48-8.29,0.96-12.6c0.48-4.31,0.96-8.45,0.96-12.44
						c0-4.78-1.28-10.52-12.12-10.84V393.04z"/>
				</g>
			</g>
		</g>
		<g>
			<g>
				<path class="st12" d="M419.42,1108.17c0,0-21.79-25.42-1.34-41.57c0,0,14.93-9.04,27.11-8.31c0,0-17.26,28.94-11.67,31.81
					c5.58,2.88,16.9-33.63,16.9-33.63s33.99-3.3,44.92,1.96c0,0-29.05,23.78-22.94,25.19c6.12,1.42,37.5-21.92,37.5-21.92
					s31.63,5.38,29.95,24.68c-1.69,19.3-12.59,25.25-17.38,24.74c-4.79-0.51-32.81-11.21-33.42-7.29
					c-0.61,3.93,16.26,16.75,28.07,17.35c0,0-22.3,24.59-37.12,17.5c-14.82-7.1-16.09-18.35-25.33-22.57
					c-9.24-4.22-17.13-4.21-13.31,0.09c3.81,4.3,20.54,8.49,25.82,17.83c5.28,9.35,10.02,15.65-5.31,13.34
					c-15.33-2.31-40.26-13.53-41.36-26.38C419.42,1108.17,419.42,1108.17,419.42,1108.17z"/>
				<g>
					<path class="st12" d="M524.31,1086.91c0,0-85.92-3.31-104.89,21.26c0,0-4.2,12.57-17.11,24.01l-2.01,5.49
						c0,0,14.89-15.7,20.21-16.65C420.51,1121.02,412.18,1090.58,524.31,1086.91z"/>
					<path class="st12" d="M402.31,1132.18c0,0-18.44,13.64-19.72,38.01l3.35,0.3c0,0,5.89-25.2,16.54-35.05
						C413.11,1125.58,402.31,1132.18,402.31,1132.18z"/>
				</g>
			</g>
			<g>
				<path class="st6" d="M343.23,1076.2c0,0,34.66-19.41,18.49-45.75c0,0-12.94-16.18-26.81-20.33c0,0,7.39,39.28,0,40.21
					c-7.39,0.92-5.08-44.37-5.08-44.37s-36.51-17.56-50.84-16.18c0,0,22.65,38.36,15.25,37.44c-7.39-0.92-32.81-39.75-32.81-39.75
					s-37.44-6.93-43.44,15.25c-6.01,22.18,3.7,33.28,9.24,34.66c5.55,1.39,41.13,0.92,40.21,5.55c-0.92,4.62-24.96,12.02-38.36,7.86
					c0,0,14.79,36.51,34.2,34.66c19.41-1.85,25.42-13.87,37.44-14.79c12.02-0.92,20.8,2.31,14.79,5.55
					c-6.01,3.24-26.34,1.06-36.05,9.31c-9.71,8.25-17.56,13.33,0.46,17.03c18.02,3.7,50.38,1.39,56.85-12.48
					C343.23,1076.2,343.23,1076.2,343.23,1076.2z"/>
				<g>
					<path class="st12" d="M235.08,1009.65c0,0,97.05,31.43,108.15,66.55c0,0-0.46,15.71,9.24,33.74v6.93
						c0,0-10.17-23.57-15.71-26.81C336.76,1090.06,358.48,1059.56,235.08,1009.65z"/>
					<path class="st12" d="M352.47,1109.94c0,0,14.97,22.73,6.43,50.4l-3.85-1.03c0,0,3.74-30.47-4.09-45.8
						C343.13,1098.17,352.47,1109.94,352.47,1109.94z"/>
				</g>
			</g>
			<g>
				<path class="st6" d="M398.38,1049.43c0,0-45.69-25.59-24.37-60.31c0,0,17.06-21.32,35.33-26.81c0,0-9.75,51.78,0,53
					c9.75,1.22,6.7-58.49,6.7-58.49s48.13-23.15,67.01-21.32c0,0-29.85,50.57-20.1,49.35c9.75-1.22,43.25-52.39,43.25-52.39
					s49.35-9.14,57.27,20.1c7.92,29.24-4.87,43.86-12.18,45.69c-7.31,1.83-54.22,1.22-53,7.31c1.22,6.09,32.9,15.84,50.57,10.36
					c0,0-19.5,48.13-45.08,45.69c-25.59-2.44-33.51-18.28-49.35-19.5c-15.84-1.22-27.41,3.05-19.5,7.31
					c7.92,4.26,34.73,1.4,47.52,12.27c12.79,10.88,23.15,17.58-0.61,22.45c-23.76,4.87-66.41,1.83-74.93-16.45
					C398.38,1049.43,398.38,1049.43,398.38,1049.43z"/>
				<g>
					<path class="st12" d="M540.93,961.7c0,0-127.94,41.43-142.56,87.73c0,0,0.61,20.71-12.18,44.47v9.14
						c0,0,13.4-31.07,20.71-35.33C406.91,1067.71,378.27,1027.5,540.93,961.7z"/>
					<path class="st12" d="M386.19,1093.9c0,0-19.73,29.96-8.48,66.43l5.08-1.36c0,0-4.93-40.17,5.4-60.37
						C398.5,1078.39,386.19,1093.9,386.19,1093.9z"/>
				</g>
			</g>
			<path class="st8" d="M396.84,1239.42c49.43,0,89.5-40.07,89.5-89.5H307.33C307.33,1199.35,347.41,1239.42,396.84,1239.42z"/>
			<path class="st13" d="M418.86,1238.74c-3.64,0.46-7.35,0.69-11.12,0.69c-49.43,0-89.5-40.07-89.5-89.5h22.24
				C340.48,1195.59,374.68,1233.26,418.86,1238.74z"/>
			<path class="st8" d="M487.58,1243.98H306.1l0,0c0-6.1,4.94-11.04,11.04-11.04h159.39
				C482.63,1232.93,487.58,1237.88,487.58,1243.98L487.58,1243.98z"/>
			<rect x="304.39" y="1149.92" class="st10" width="183.98" height="2.75"/>
		</g>
		<g>
			<g>
				<path class="st14" d="M1771.85,966.61c1.62-39.99,5.13-74.77,9.33-99.03c6.69-38.67,12.71-60.91,12.78-61.15
					c0.88-3.4,13.61-17.16,41.9-16.73c28.29,0.42,25.61,18.47,25.61,18.47l0,0c0,0.61-0.08,1.18-0.2,1.6
					c-0.27,0.93-26.24,95.1-25.12,216.68c0.02,1.71,0.21,4.66,0.09,6.62c0,0.01-65.57,1.69-65.58,0
					C1768.36,1022.45,1769.47,993,1771.85,966.61z"/>
				<path class="st15" d="M1763.6,1025.85c0.02,1.69,0.91,3.05,2,3.05h0.03c1.09-0.03,1.96-1.38,1.97-3.05h56.19
					c0.02,1.69,0.91,3.05,2,3.05h0.03c1.11-0.03,1.99-1.43,1.98-3.14c-0.33-34.8,1.66-67.3,4.66-95.99
					c7.47-71.53,21.28-119.34,21.47-120c0.12-0.43,0.2-0.99,0.2-1.6c0,0,2.68-18.04-25.61-18.47c-28.3-0.43-41.02,13.34-41.9,16.74
					c-0.05,0.18-3.46,12.78-7.99,35.42c-1.5,7.5-3.12,16.11-4.79,25.72c-4.19,24.26-7.7,59.04-9.32,99.03
					C1762.15,993,1761.32,1015.23,1763.6,1025.85z"/>
				<path class="st16" d="M1763.6,1025.85c0.02,1.69,0.91,3.05,2,3.05h0.03c1.09-0.03,1.96-1.38,1.97-3.05h56.19
					c0.02,1.69,0.91,3.05,2,3.05h0.03c1.11-0.03,1.99-1.43,1.98-3.14c-0.33-34.8,1.66-67.3,4.66-95.99
					c-9.29-45.4-45.19-80.12-53.83-87.92c-1.5,7.5-3.12,16.11-4.79,25.72c-4.19,24.26-7.7,59.04-9.32,99.03
					C1762.15,993,1761.32,1015.23,1763.6,1025.85z"/>
				<g>
					<path class="st14" d="M1820.23,1025.27l-0.16-0.11c-0.05-0.03-0.08-0.06-0.1-0.28l-0.04,0c0.02-0.48-0.13-0.86-0.45-1.19
						c-1.78-1.82-8.58-1.75-17.19-1.65c-9.4,0.1-21.11,0.24-32.78-1.81c-6.03-1.06-1.96-47.5,2.32-90.95
						c0.73-7.39,1.3-13.22,1.56-16.66c2.78-36.77,18.92-102.58,19.08-103.1c0.72-2.77,10.42-13.01,31.46-12.67
						c7.91,0.12,13.53,2.07,16.71,5.81c3.26,3.84,2.67,8.11,2.65,8.29c0,0.41-0.05,0.87-0.16,1.23c-0.09,0.36-14.63,85.21-17,105.59
						c-3.91,33.54-5.48,103.07-5.55,106.94c0,0.05,0,0.1,0,0.14l-0.01,0.19L1820.23,1025.27z M1807.68,1021.35
						c6.28,0,10.7,0.29,12.27,1.88c0,0,0.01,0.01,0.01,0.01c0.02-1.6,0.11-4.6,0.26-10.24c0.19-6.65,0.5-17.02,0.96-28.73
						c0.81-20.48,2.21-48.66,4.3-66.57c2.43-20.83,16.95-105.43,17.03-105.7c0.09-0.31,0.14-0.71,0.14-1.1
						c0.01-0.09,0.57-4.22-2.5-7.83c-3.05-3.59-8.51-5.46-16.22-5.58c-0.32,0-0.64-0.01-0.95-0.01c-20.01,0-29.2,9.58-29.88,12.21
						c-0.16,0.6-16.26,65.97-19.05,102.98l-0.32-0.02l0.32,0.02c-0.26,3.44-0.84,9.28-1.57,16.67c-2.86,28.96-8.8,89.21-2.85,90.25
						c11.62,2.04,23.29,1.9,32.66,1.8C1804.21,1021.37,1806.01,1021.35,1807.68,1021.35z"/>
				</g>
				<path class="st15" d="M1831.96,1028.9h-220.29c0,0,5.13-20.76,132.71-17.67C1834.66,1013.42,1831.96,1028.9,1831.96,1028.9z"/>
				<g>
					<path class="st14" d="M1849.89,1245.74c-25.54-129.3-18.97-208.65-18.94-209.65c0.06-1.99-3.6-3.8-5.58-3.86
						c-2-0.04-10.81-0.59-11.83,1.12c-1.34,2.23-6.48,99.99,31.59,212.39H1849.89z"/>
				</g>
				<g>
					<path class="st14" d="M1644.21,1245.74c25.54-129.3,18.97-208.65,18.94-209.65c-0.06-1.99,3.6-3.8,5.58-3.86
						c2-0.04,10.81-0.59,11.83,1.12c1.34,2.23,6.48,99.99-31.59,212.39H1644.21z"/>
				</g>
				<g>
					<path class="st17" d="M1598.16,1245.74c25.54-129.3,18.97-208.65,18.94-209.65c-0.06-1.99,3.6-3.8,5.58-3.86
						c2-0.04,10.81-0.59,11.83,1.12c1.34,2.23,6.48,99.99-31.59,212.39H1598.16z"/>
				</g>
				<g>
					<path class="st17" d="M1808.85,1245.74c-25.54-129.3-18.97-208.65-18.94-209.65c0.06-1.99-3.61-3.8-5.58-3.86
						c-2-0.04-10.81-0.59-11.83,1.12c-1.34,2.23-6.48,99.99,31.59,212.39H1808.85z"/>
				</g>
				<path class="st14" d="M1611.54,1035.53h220.29c2.48,0,4.51-2.03,4.51-4.51v-2.97c0-2.48-2.03-4.51-4.51-4.51h-220.29
					c-2.48,0-4.51,2.03-4.51,4.51v2.97C1607.02,1033.5,1609.05,1035.53,1611.54,1035.53z"/>
			</g>
			<g>
				<path class="st18" d="M678.62,532.3l-0.03,5.44c0,0,1.48,17.01-19.47,19.5c-20.95,2.49-38.13,2.16-37.57-10.97
					c1.89-10.17,5.27-25.95,5.41-34.36c0.05-3.13-0.16-6.44-0.74-10.19l40.6-0.81l11.96,1.95L678.62,532.3z"/>
				<path class="st19" d="M678.78,502.87l-0.15,29.43c-4.31,2-9.18,3.23-14.63,3.23c-18.66,0-30.72-13.68-37.02-23.61
					c0.05-3.13-0.16-6.44-0.74-10.19l40.6-0.81L678.78,502.87z"/>
				<path class="st18" d="M623.11,495.19c4.71,25.35,37.42,24.52,51.56,22.92c3.98-0.44,6.48-0.95,6.48-0.95
					c4.49-1.2,6.99-8.26,8.15-17.52c2.31-18.32-0.61-45.2-3.7-52.08c-4.66-10.35-13.43-21.54-46.37-13.46
					C606.28,442.19,617.07,462.71,623.11,495.19z"/>
				<path class="st2" d="M596.35,1245.74h46.35c-0.35-2.43-1.53-9.83-3.7-16.64c-0.75-2.37-1.63-4.68-2.63-6.68
					c-4.51-9-33.14-3.28-33.14-3.28s-2.66,2.28-4.74,10.98C597.58,1233.96,596.77,1239.06,596.35,1245.74z"/>
				<path class="st2" d="M736.41,1231.11c0.13,6.31,0.92,12.27,3.21,14.63h91.68c-1.17-3.32-4.47-8.31-13.88-9.83
					c-10.69-1.73-27.37-6.88-37.1-17.17c-3.47-3.66-6.05-7.97-7.18-13.01c-4.31-19.2-35.66,5.88-35.66,5.88
					S736.21,1221.72,736.41,1231.11z"/>
				<path class="st20" d="M675.43,1023.52c1.28,7.03,2.09,12.8,2.3,16.94c2.91,56.85,47.86,186.84,55.89,189.87
					c12.44,4.69,32.02-5.28,42.27-8.55c4.25-1.36,7.11-5.64,6.17-9.98c-22.26-102.31-30.44-249.64-33.41-336.87
					c-1.5-43.93-9.04-74.28-9.04-74.28S630,771.4,629.35,808.39C628.77,841.13,665.66,969.51,675.43,1023.52z"/>
				<path class="st2" d="M675.43,1023.52l73.22-148.59c-1.5-43.93-9.04-74.28-9.04-74.28S630,771.4,629.35,808.39
					C628.77,841.13,665.66,969.51,675.43,1023.52z"/>
				<path class="st20" d="M699.82,808.52l-57.94,419.96c0,0-25.45,6.14-45.24,1.23c0,0-16.96-223.35-15.55-277.35
					c1.41-54-12.17-144.49,3.1-154.47C599.47,787.91,699.82,808.52,699.82,808.52z"/>
				<path class="st2" d="M695.71,423.44c0,0-14.5-1.12-31.6-8.55c-13.88-6.04-31.39,0.61-37.08,3.61c0.15-0.92,0.52-2.17,1.39-3.42
					c0,0-2.55,1.81-2.93,4.34c-0.26,0.19-0.38,0.33-0.31,0.37c0,0-2.89-0.53-4.75,0.31c0,0,1.3-0.19,1.77,0.65
					c0.05,0.09,0.12,0.16,0.21,0.23c-21.65,10.46-23.65,44.68-16.68,52.6c8.38,9.53,18.44,30.98,18.44,30.98s3.67-5.07,2.14-13.45
					c-1.52-8.38,5.72-8.38,14.86-12.19c9.15-3.81,1.52-14.48,9.53-20.96c8-6.48,37.34-2.67,36.96-7.62
					C698.53,446.36,695.71,424.56,695.71,423.44z"/>
				<path class="st21" d="M616.62,553.56l13.34,286.24c0,0,111.34,1.82,108.17-23.38c-3.18-25.2-40.13-254.1-40.13-254.1
					L616.62,553.56z"/>
				<path class="st22" d="M576.86,715.82c6.62,19.87-5.87,86.55-10.32,109.14c-0.98,4.78-1.63,7.6-1.63,7.6
					c15.42,25.08,71.89,24.76,71.89,24.76c10.86-48,16.51-124.46,16.51-124.46l-43.33-189.95l-54.52,50.39
					c0,0,4.13,30.73,9.23,62.01C568.72,680.09,573.28,705.28,576.86,715.82z"/>
				<path class="st3" d="M669.53,499.36c0,0,1.06,3.27,9.31,2.08c0,0,6.93-1,6.42-4.65C685.25,496.79,678.29,494.74,669.53,499.36z"
					/>
				<path class="st22" d="M732.11,557.65c0,0,0.01,0.05,0.02,0.12c2.63,2.55,76.96,74.72,91.36,102.99
					c14.66,28.67-67.01,85.79-67.01,85.79s-5.26,2.08-8.9,1.26c3.85,31.7,8.17,60.96,5.61,73.44c-4.63,22.57-25.5,30.15-25.5,28.41
					c0-0.55-7.63-82.01-11.78-124.51c-8.89-91.13-36.47-183.24-36.47-183.24C703.75,544.44,732.11,557.65,732.11,557.65z
					 M776.37,673.14c0.11-0.11,0.11-0.33,0.11-0.44c0-4.13-15.75-13.25-32.8-24c-0.22-0.22-0.33-0.33-0.33-0.33
					c-0.01-0.01-0.02-0.01-0.03-0.02c0.3,8.78,0.27,17.4-0.25,25.42c-0.97,14.88,0.11,32.66,1.91,50.77
					C753.1,711.87,774.78,677.8,776.37,673.14z"/>
				<g>
					<path class="st23" d="M613.46,542.58c-0.14-2.73,12.8-6.51,12.8-6.51s14.81,20.53,39.21,20.89c0,0-6.95,13.53-15.15,17.04
						C650.33,574,614.27,558.8,613.46,542.58z"/>
					<path class="st23" d="M665.47,556.48c0,0,12.93-7.66,12.97-15.97c0,0,8.35-1.05,11.99,3c0,0,3.06,14.24-1,22.51
						C689.44,566.02,670.83,563.18,665.47,556.48z"/>
					<path class="st24" d="M656.7,555.25l17.53-4.2c0,0,2.29,0.2,2.23,3.05c-0.06,2.85-4.94,11.2-7.1,11.86
						C667.2,566.63,652.55,561.02,656.7,555.25z"/>
					<path class="st21" d="M615.5,541.17c-0.14-2.73,8.62-8.36,8.62-8.36s16.95,19.81,41.35,20.17c0,0-6.95,13.53-15.15,17.04
						C650.33,570.01,616.31,557.39,615.5,541.17z"/>
					<path class="st21" d="M665.47,552.97c0,0,13.07-6.93,13.12-15.24c0,0,7.89,3.47,11.54,7.52c0,0,3.38,8.99-0.69,17.26
						C689.44,562.51,670.83,559.68,665.47,552.97z"/>
					<g>
						<path class="st25" d="M699.74,750.42c-0.6,6.69-3.66,12.91-8.6,17.46l-7.76,7.15c-1.95,1.8-5.01,1.55-6.65-0.53l-9.62-12.21
							c-2.58-3.28-3.79-7.42-3.4-11.57c0.9-9.24,2.58-27.05,3.92-44.24c1.09-13.92,1.97-27.45,2.03-35.68
							c0.21-26.28-5-110.07-5-110.07l6.3,0.33c0,0,15.65,32.53,23.84,76.78c2.02,10.89,3.58,22.49,4.35,34.5
							C699.14,672.35,702.43,720.2,699.74,750.42z"/>
						<path class="st24" d="M699.74,750.42c-0.6,6.69-3.66,12.91-8.6,17.46l-7.76,7.15c-1.95,1.8-5.01,1.55-6.65-0.53l-9.62-12.21
							c-2.58-3.28-3.79-7.42-3.4-11.57c0.9-9.24,2.58-27.05,3.92-44.24c17.41-19.56,24.46-46.59,27.17-68.64
							c2.02,10.89,3.58,22.49,4.35,34.5C699.14,672.35,702.43,720.2,699.74,750.42z"/>
					</g>
				</g>
				<path class="st18" d="M761.7,751.2c0-7.3-6.42-13.15-13.63-12.06c-2,0.3-3.81,1.13-5.06,2.8c-4.96,6.61-9.69,25.83-0.89,26.73
					c3.58,0.37,8.18-2.15,11.72-4.84c3.6-2.73,7.86-7.02,7.86-11.54V751.2z"/>
				<path class="st2" d="M566.55,824.96c15.96-16.62,43.55-49.31,42.57-76.13c-1.3-37.58-44.42-93.5-44.42-93.5
					c4.02,24.76,8.58,49.96,12.16,60.49C583.49,735.69,571,802.37,566.55,824.96z"/>
				<path class="st18" d="M567.05,759.6c0,0,11.48,5.74,18.44,2.87c6.97-2.87,15.17-5.02,22.95,3.84
					c7.79,8.87,9.43,15.01,7.79,18.29c-1.64,3.28-19.8,2.05-22.81,0c-3.01-2.05-7.78-7.09-10.8-6.22c-8.34,2.42-15.36-3.94-19.29-9
					C560.96,766.33,567.36,764.84,567.05,759.6z"/>
				<path class="st22" d="M609.99,542.92c0,0-45.71,5.06-56.49,24.97c-10.78,19.91-66.84,100.58-65,134.11
					c1.84,33.53,76.47,71.12,76.47,71.12s16.53-6.98,16.78-14.5c0.25-7.51-51.6-52.43-48.45-60.81
					c3.14-8.38,60.23-74.67,65.74-96.53C604.53,579.41,609.99,542.92,609.99,542.92z"/>
				<path class="st2" d="M743.35,648.37c0,0,0.11,0.11,0.33,0.33c17.05,10.75,32.8,19.87,32.8,24c2.28-7.28-19.87-37.69-27.04-43.88
					C742.16,622.53,743.35,648.37,743.35,648.37z"/>
				<path class="st2" d="M624.12,532.81c0,0,34.7,145.35,29.18,200.1c0,0-12.76-58.51-43.46-106.43c0,0,11.21-9.85,10.6-13.49
					c0,0-8.32-2.47-16.39-0.81c0,0,0.89-62.65,5.92-69.27C615.01,536.29,624.12,532.81,624.12,532.81z"/>
				<path class="st2" d="M678.59,537.74c-0.71-0.42,34.39,142.03,37.32,187.42c0,0-3.48-81-3.14-104.34c0,0-14.41-7.63-14.41-10.31
					c0-2.68,15.38-9.92,15.38-9.92s-9.74-49.88-15.05-55.38C693.38,539.71,678.59,537.74,678.59,537.74z"/>
			</g>
			<g>
				<g>
					<path class="st18" d="M1670.45,1167.37c1.83,2.1,1.29,3.69,0.38,6.2c-1.38-0.76-0.61-0.46,0,0
						c-1.68,4.64-7.11,9.17-13.55,14.34c-0.82,0.66-1.34,1.69-1.98,2.25c-0.17,0.15-0.24,0.65-0.4,0.79
						c-0.13,0.11-0.54,0.09-0.66,0.2c-6.01,5.54-3.68,6.87-14.47,18.11c-12.31,12.8-19.46,13.46-21.87,12.29
						c-2.04-0.99,1.34-7.45,5.94-15.08c0.22-0.37,0.44-0.74,0.67-1.11c0.61-1.01,1.22-2.05,1.83-3.06c5.38-9.19,4-13.49,2.72-27.16
						c-1.04-11.11-17.28-62.06-17.28-62.06l23.58-4.06c0,0,7.1,40.57,14.93,46.82c4.18,3.33,8.87,3.37,12.89,5.84
						c0.28,0.17,0.56,0.35,0.84,0.53C1666.29,1163.7,1668.61,1165.26,1670.45,1167.37z"/>
					<path class="st25" d="M1670.45,1167.37c1.83,2.1,2.07,4.45,1.16,6.96c0,0.01-0.01,0.03-0.02,0.04
						c-2.06,4.63-7.46,9.79-13.69,14.94c-0.81,0.68-1.53,1.3-2.17,1.88c-0.17,0.15-0.33,0.29-0.49,0.44
						c-0.13,0.11-0.25,0.23-0.38,0.34c-6.01,5.54-3.75,6.81-14.54,18.04c-12.31,12.8-20.78,13.03-23.19,11.87
						c-2-0.98,1.66-7.5,6.15-14.98c0.14-0.24,0.36-0.42,0.62-0.52c3.06-1.17,13.84-5.81,21.86-16.08
						c7.14-9.11,11.78-21.95,16.64-29.08c0.53-0.1,1.04,0.5,1.6,0.96C1666.29,1163.7,1668.61,1165.26,1670.45,1167.37z"/>
					<path class="st18" d="M1480.31,1152.64c-1.46,7.28-11.47,5.32-23.06,2.49c-11.59-2.83-9.21,0.5-25.71-1.32
						c-16.5-1.83-20.71-7.13-21.21-9.58c-0.45-2.18,6.92-3.02,15.67-4.03c1.1-0.12,2.2-0.26,3.31-0.4
						c9.87-1.24,17.1-7.61,26.07-12.84c8.49-4.96,21.17-25.15,21.17-25.15l22.62,1.79c0,0-11.87,18.03-16.46,25.87
						c-2.7,4.61-2.56,10.71-2.22,15.42C1480.66,1147.46,1480.83,1150.08,1480.31,1152.64z"/>
					<path class="st25" d="M1456.89,1155.87c-11.59-2.83-8.84,0.54-25.33-1.29c-16.5-1.83-21.5-7.98-22-10.43
						c-0.45-2.18,7.7-2.94,16.44-3.95l0.08,0.17c0,0,9.89,7.02,23.63,7.34c11.19,0.27,23.05-2.94,30.78-2.81
						c0.17,2.56,0.34,5.18-0.17,7.74C1478.86,1159.92,1468.48,1158.7,1456.89,1155.87z"/>
					<path class="st18" d="M1530.65,820.33c0,0-5.39-13.21-11.32-13.75c-5.93-0.54-24.8-3.5-26.14-0.81c-1.35,2.7,0,12.4,4.04,15.9
						c4.04,3.5,29.11,9.16,29.11,9.16L1530.65,820.33z"/>
					<path class="st26" d="M1567.02,1007.97l48.76,131.23c0,0,7.49,0.73,14.67-1.34c6.61-1.9,14.18-6.91,14.18-6.91
						s-12.1-126-34.27-152.21C1588.19,952.53,1567.02,1007.97,1567.02,1007.97z"/>
					<path class="st26" d="M1759.88,954.88c0,0-140.11-47.38-171.36-37.3c-31.25,10.08-125.07,196.75-125.07,196.75
						s2.12,2.82,7.9,4.98c5.38,2.02,18.39,1.89,18.39,1.89s84.67-72.58,94.75-93.74c10.08-21.17,14.11-41.33,24.19-39.31
						c10.08,2.02,130.03,49.39,157.25,21.17c27.22-28.22,20.1-64.89,20.1-64.89L1759.88,954.88z"/>
					<path class="st27" d="M1674.26,734.48c-2.24-4.62-4.74-12.83-5.96-27.45c0.19,1.45,2.71,19.9,9.8,30.34
						c29.14,19.13,84.99,83.01,83.89,95.12c0,0,19.67-33.37,20.01-33.57c0,0,36.29-46.15-6.72-72.58
						c-21.86-13.43-21.75-30.68-20.83-45.65c0.92-14.98-5.96-79.46-49.75-62.58c0,0-7.03-3.12-10.17-2.65c0,0,2.57,0.49,3.88,1.84
						c-5.08-0.3-12.33,0.08-18.39,3.52C1663.95,629.93,1649.58,711.77,1674.26,734.48z"/>
					<path class="st18" d="M1679.82,738.33c-0.15,0.07,14.07,7.45,24.76,4.52c10.06-2.74,16.63-15.78,16.49-15.81
						c-4.26-0.85-5.49-6.7-5.4-31.85l-1.93,0.38l-32.38,6.41c0,0,0.74,10.19,0.76,19.79
						C1682.16,729.82,1681.67,737.46,1679.82,738.33z"/>
					<path class="st28" d="M1681.38,701.97c0,0,0.74,10.19,0.76,19.79c18.12-0.51,27.69-17.04,31.62-26.2L1681.38,701.97z"/>
					<path class="st27" d="M1717.1,692.04c0,0,9.5-15,11.77-27.83c1.63-9.16-3.04-43.1-37.15-38.22c0,0-9.91,0.98-19.22,7.27
						c-7.41,5-18.1,15.8-6.14,45.42l3.1,10.01L1717.1,692.04z"/>
					<path class="st18" d="M1675.33,711.06c0,0,42.87,0.71,42.89-25.99c0.03-26.7,5.58-44.59-21.79-46.17
						c-27.37-1.58-32.7,8.6-34.87,17.51C1659.39,665.32,1664.18,710.19,1675.33,711.06z"/>
					<path class="st27" d="M1676.91,638.24c0,0,11.74,31.33,29.75,35.96c18.01,4.63,25.82-0.19,25.82-0.19s-0.47-19.17-3.34-38.33
						C1729.15,635.68,1685.77,623.33,1676.91,638.24z"/>
					<path class="st27" d="M1679.82,640.79c0,0-8.76,6.99-10.9,13.79c-2.14,6.8-3.1,20.8-7.18,20.32c0,0-8.84-21.29,1.09-33.34
						C1673.37,628.79,1679.82,640.79,1679.82,640.79z"/>
					<path class="st29" d="M1792.75,955.62c-2.31,6.42-9.4,8.07-18.9,6.96c-18.12-2.12-45.03-14.28-64.43-22.69
						c-29.57-12.82-43.01-0.77-52.42-8.93s10.75-26.3-6.72-110.52c-5.93-28.56,31.63-89.8,31.63-89.8s3.25,17.73,39.17-3.6
						c1.27-0.75,15.41,20.19,29.03,46c15.01,28.48,29.39,62.88,25.17,80.61C1767.21,887.44,1799.47,936.97,1792.75,955.62z"/>
					<path class="st30" d="M1681.9,730.63l-22.15,90.86c0,0-2.76,4.91-7.08,11.89c-10.14,16.4-28.91,44.25-40.93,47.08
						c-5.93,1.4-18.53-3.53-32.49-10.58c-26.38-13.33-57.57-34.21-57.57-34.21c-2.02-12.1,8.51-21.96,8.51-21.96
						s63.17,23.74,69.45,24.19c13.68,0.97,27.59-65.03,40.38-87.03C1649.27,734.96,1681.9,730.63,1681.9,730.63z"/>
					<path class="st3" d="M1684.85,694.88c0,0-0.8,3.39-9.24,2.87c0,0-7.08-0.44-6.87-4.17
						C1668.75,693.58,1675.62,690.93,1684.85,694.88z"/>
					<path class="st30" d="M1793.75,955.62c-2.31,6.42-9.4,8.07-18.9,6.96c-12.54-5.46-66.71-26.45-66.11-40.67
						c0.55-12.94,4.36-18.18,5.65-26.33c0.46-2.92-32.86-2.51-33.3-6.66c-0.33-3.12,32.46-10.43,31.35-14.73
						c-5.4-20.87,44.66-59.66,52.64-68.1c15.01,28.48,15.43,29.83,11.2,47.56C1768.21,887.44,1800.47,936.97,1793.75,955.62z"/>
					<path class="st18" d="M1702.86,873.69c0,0-9.07-7.06-17.64-5.38c-8.57,1.68-12.77,7.56-12.43,10.25
						c0.34,2.69,4.87,10.25,11.42,10.92c6.55,0.67,25.2-4.03,25.2-4.03L1702.86,873.69z"/>
					<path class="st30" d="M1721.08,727.03c0,0,34.94,2.15,47.03,19.02c17.03,23.75,46.59,120.69,38.53,142.86l-106.29-0.45
						c0,0-2.58-12.04,1.01-17.86c3.58-5.82,61.83-15.23,64.52-17.92c2.69-2.69-33.6-52.42-33.6-60.48
						C1732.27,784.14,1721.08,727.03,1721.08,727.03z"/>
				</g>
				<g>
					<g>
						<polygon class="st25" points="1693.74,913.39 1565.06,913.39 1541.86,832.49 1670.35,832.49 						"/>
						<polygon class="st31" points="1564.16,910.23 1733.73,910.23 1733.73,913.39 1565.06,913.39 						"/>
					</g>
					<path class="st31" d="M1605.92,871.62c-0.82-2.84,0.83-5.15,3.67-5.15s5.81,2.31,6.62,5.15c0.82,2.84-0.83,5.15-3.67,5.15
						C1609.7,876.77,1606.74,874.47,1605.92,871.62z"/>
				</g>
			</g>
			<g>
				<path class="st18" d="M1068.41,729.76c0,0,14.07-11.5,19.12-11.56c5.05-0.06,14.65-2.59,14.28-0.94
					c-0.38,1.64-8.46,3.79-7.07,4.55c1.39,0.76,13.14-2.4,16.42-0.51c3.28,1.9,10.99,9.73,4.8,13.14
					c-6.19,3.41-24.76,8.84-29.56,8.21c-4.8-0.63-15.67-1.39-15.67-1.39L1068.41,729.76z"/>
				<polygon class="st18" points="888.78,1157.22 900.58,1206.9 918.24,1206.8 918.89,1157.22 				"/>
				<polygon class="st18" points="1037.41,1159.33 1070.97,1206.9 1084.06,1190.1 1063.85,1152.79 				"/>
				<path class="st24" d="M968.62,558.58c0-0.01,0-0.01,0-0.01c0-0.12-0.01-0.24-0.03-0.36c-0.22-2.48-0.51-4.92-0.84-7.36
					c0-0.01,0-0.01,0-0.01c-1.01-7.45-2.47-14.61-4.23-21.01c-1.02-3.67-2.13-7.09-3.33-10.18c-0.18-0.48-0.36-0.92-0.54-1.37
					l-0.01-0.01c-2.87-7-6.15-12.04-9.49-13.94c-6.1-3.47-13.41-3.84-18.53-3.55c1.31-1.35,3.91-1.85,3.91-1.85
					c-3.17-0.48-10.25,2.67-10.25,2.67c-44.11-16.99-51.04,47.95-50.11,63.04c0.92,15.09-14.83,20.01-37.77,31.9
					c-43.78,22.68-47.62,53.05-47.62,53.05c0.33,0.2,0.7,0.43,1.07,0.7c2.17-3.68,6.65-10.59,10.42-11.63
					c-0.15,0.33-4.46,9.51-6.07,14.77c5.53,4.21,13.1,10.59,21.28,17.74c0,0,0,0,0.01,0.01c10.96,9.55,22.99,20.46,32.62,29.29
					c-0.07-3.02,0.05-7.3,1.15-9.56l1.84,11.08l0.24,1.45c6.14,5.65,10.99,10.16,13.44,12.46c0.25,0.23,0.47,0.44,0.68,0.63
					c0.72,0.67,1.1,1.03,1.1,1.03c-0.35-3.87,5.08-13.02,13.6-24.3c0.59-0.79,1.2-1.59,1.83-2.4c2.74-3.56,5.76-7.29,8.98-11.12
					c1.16-1.38,2.33-2.77,3.55-4.17c0-0.01,0.01-0.01,0.01-0.01c0.97-1.13,1.95-2.25,2.96-3.4l0.01-0.01
					c2.39-2.71,4.84-5.43,7.34-8.15c6.47-7.04,13.24-13.99,19.85-20.29c9.6-9.19,18.85-17.04,26.35-21.96
					c0.28-0.41,0.56-0.84,0.81-1.27c1.39-2.25,2.59-4.81,3.61-7.44c0.31-0.79,0.61-1.59,0.88-2.38c2.94-8.44,4.25-17.05,4.54-19.1
					c-0.72,8.47-1.87,14.77-3.14,19.47c-0.28,1.03-0.57,1.98-0.86,2.86v0.01c-0.66,1.99-1.31,3.62-1.96,4.95
					c1.28-1.18,2.46-2.52,3.54-4c0.71-0.97,1.37-2,1.99-3.09C968.83,598.89,970.41,578.34,968.62,558.58z"/>
				<path class="st18" d="M950.33,622.69c0.15,0.07-14.17,7.5-24.94,4.55c-10.13-2.76-16.75-15.9-16.61-15.93
					c4.29-0.85,5.53-6.75,5.44-32.08l1.94,0.38l32.61,6.46c0,0-0.74,10.26-0.76,19.93C947.97,614.12,948.47,621.82,950.33,622.69z"
					/>
				<path class="st24" d="M913.45,514.97c0,0,16.09-17.13,36.28-0.88C949.73,514.09,937.98,512.06,913.45,514.97z"/>
				<path class="st28" d="M948.76,586.08c0,0-0.74,10.26-0.76,19.93c-18.25-0.51-27.89-17.16-31.84-26.39L948.76,586.08z"/>
				<path class="st24" d="M912.78,576.07c0,0-9.56-15.11-11.86-28.03c-1.64-9.22,3.06-43.41,37.42-38.49c0,0,9.98,0.98,19.36,7.32
					c7.46,5.04,18.23,15.91,6.19,45.75l-3.13,10.08L912.78,576.07z"/>
				<path class="st25" d="M1078.73,1177.06l-17.28,0.53l-18.71,0.57c0,0-43.22-48.12-67.46-125.25c-0.57-1.79-1.16-3.61-1.79-5.44
					c-13.27-38.68-40.77-87.24-55.26-131.19c-2.31-7-4.38-13.59-6.24-19.83c-0.59-2-1.17-3.96-1.73-5.89
					c-10.68-37.11-13.77-61.48-16.62-87.51l104.66,0.84C998.29,803.89,1015.19,981.66,1078.73,1177.06z"/>
				<path class="st32" d="M983.64,743.75c-0.26,49.8,7.31,71.17,7.31,71.17s-44.81,22.77-98.07,6.01
					c-0.63-0.2-44.1-10.12-44.1-10.12c0.89-2.02,8.82-35.58,9.69-37.43c11.24-24.15,19.78-34.73,21.12-42.16
					c2.47-13.86,2.53-28.2,1.29-41.72c-3.25-35.8-12.91-65.52-12.91-65.52c14.51-3.3,28.1-9.1,43.2-14.77
					c3.47,4.33,14.09,8.85,23.31,8.65c10.61-0.23,14.05-4.77,13.5-9.73c11.31,6.29,20.33,12.23,20.33,12.23
					c9.61,16.69,29.1,32.9,30.51,58.5C999.15,685.15,983.65,742.36,983.64,743.75z"/>
				<path class="st18" d="M954.85,595.23c0,0-43.17,0.71-43.2-26.18c-0.03-26.89-5.62-44.91,21.94-46.5
					c27.56-1.59,32.93,8.66,35.12,17.64C970.91,549.16,966.08,594.35,954.85,595.23z"/>
				<path class="st24" d="M953.26,521.89c0,0-11.82,31.55-29.96,36.22c-18.14,4.66-26.01-0.2-26.01-0.2s4.6-23.65,7.49-42.94
					C904.77,514.97,944.34,506.87,953.26,521.89z"/>
				<path class="st24" d="M950.33,524.45c0,0,8.83,7.04,10.98,13.89c2.15,6.85,3.12,20.95,7.23,20.47c0,0,8.91-21.44-1.1-33.58
					C956.82,512.37,950.33,524.45,950.33,524.45z"/>
				<path class="st18" d="M899.98,1204.12c0,0,1.42,9.84-2.25,20.37c0,0-2.89,13.18,10.09,13.42c12.98,0.25,16.16-0.98,14.69-9.06
					c-1.47-8.08-4.26-22.05-4.26-22.05L899.98,1204.12z"/>
				<path class="st2" d="M924.22,1245.74H895.8c-1.16-5.84,1.41-18.31,1.83-20.71c0.03-0.18,0.06-0.31,0.08-0.4
					c0.01-0.09,0.02-0.13,0.02-0.13c14.69,13.46,23.88-0.34,23.88-0.34c0.01,0.02,0.02,0.04,0.03,0.07
					C923.8,1229.5,924.25,1243.68,924.22,1245.74z"/>
				<path class="st18" d="M1115.33,1230.17c0,0-23.93-26.56-31.27-40.07l-17.79,9.11l39.77,37.35l9.31-1.22L1115.33,1230.17z"/>
				<path class="st2" d="M1130.53,1245.74c0,0-29.63,0-30.1,0c-4.43,0-7.97-7.35-12.75-16.9c-1.95-3.91-6.34-6.06-10.84-7.24
					l0.12,24.14h-6.95l-6.39-25.53c-4.24-7.79-0.34-14.85,2.64-21c3.47-0.01,12.8,2.37,30.47,22.28c5.81,6.54,12.22,8.87,18.59,8.68
					c0.09,0.06,0.18,0.1,0.26,0.14C1130.28,1236.93,1130.53,1245.74,1130.53,1245.74z"/>
				<path class="st31" d="M1061.45,1177.59l-18.71,0.57c0,0-43.22-48.12-67.46-125.25c-0.57-1.79-1.16-3.61-1.79-5.44
					c-13.27-38.68-40.77-87.24-55.26-131.19c-2.31-7-4.38-13.59-6.24-19.83c-0.59-2-1.17-3.96-1.73-5.89l15.41-11.69
					c0,0,46.27,74.93,60.6,145.44C998.71,1085.56,1048.55,1159.26,1061.45,1177.59z"/>
				<path class="st25" d="M927.28,1030.88c0.26,34.29-1.47,113.13-5.94,145.77h-16.57c-9.16,0-13.73-0.13-13.73-0.13
					c-11.2-56.75-19.17-103.7-24.98-144.16c-4.76-33.2-8.99-61.67-12.25-86.17c-3.28-24.66-5.55-45.31-6.37-62.76
					c-0.12-2.75-0.22-5.42-0.27-8.01c-0.05-2.61-0.07-5.14-0.04-7.6l90.43-8.82C936.43,919.07,927.13,1010.95,927.28,1030.88z"/>
				<path class="st31" d="M904.77,1176.65c-9.16,0-13.73-0.13-13.73-0.13c-11.2-56.75-19.17-103.7-24.98-144.16
					c-4.76-33.2-8.99-61.67-12.25-86.17c-3.28-24.66-5.55-45.31-6.37-62.76l33.18,19.52c0,0-21.18,7.47-13.1,64.03
					C875.62,1023.53,893.52,1168.64,904.77,1176.65z"/>
				<path class="st4" d="M909.04,882.86c0,0-6.37,23.02-28.41,20.08c-22.04-2.94-53.38-16.16-53.38-16.16s9.42-29.76,21.13-68.85
					c14.18-47.33,17.71-113.85,25.98-152.34c2.32-10.78,17.93-14.28,18.52-20.73l18.28-35.47c0,0,27.26,61.18,28.73,76.61
					C941.36,701.42,909.04,882.86,909.04,882.86z"/>
				<path class="st33" d="M893.64,731.42c-0.98,24.98-9.72,67.58-44.83,86.31c-0.14,0.07-0.28,0.14-0.42,0.2
					c14.18-47.33,14-92.74,22.27-131.23C889.52,682.77,894.17,717.67,893.64,731.42z"/>
				<path class="st18" d="M855.08,786.87c0,0,15.75-3.4,19.79,1.09c4.05,4.5,6.32,11.64,2.27,14.15s-15.75-4.38-19.96-1.6
					c-3.02,1.99-3.97,7.05-7,5.28c-3.03-1.77-6.22-13.37-6.22-13.37L855.08,786.87z"/>
				<path class="st4" d="M911.16,609.38c0,0-42.49,1.87-52.7,11.35c-10.21,9.48-71.36,82.76-72.37,101.96
					c-1.01,19.2,53.57,73.78,53.57,73.78s15.16-3.65,21.73-13.2c0,0-33.86-60.37-31.84-63c2.02-2.63,59.38-49.63,64.08-39.21
					C897.69,690.05,911.16,609.38,911.16,609.38z"/>
				<path class="st4" d="M1072.79,723.53c0,0-48.51,16.17-54.58,14.82c-6.06-1.35-14.72-67.08-19.41-89.61
					c-6.03-29.01-29.02-34.78-29.02-34.78l-21.82-5.84c0,0,24.98,61.71,25.71,74.19c0.73,12.49,2.94,204.22,2.94,204.22
					s-1.47,8.81,15.43,5.14s21.3-7.35,21.3-7.35s-7.32-53.6-10.77-101.18c17.21-2.94,72.56-30.99,72.56-30.99
					C1083.74,738.67,1072.79,723.53,1072.79,723.53z"/>
			</g>
			<g>
				<g>
					<path class="st34" d="M1429.36,930.51l-8.83,50.06v0l-24.4,138.29l-21.82,123.62c-0.33,1.87-2,3.24-3.95,3.24
						c-1.72,0-3.05-1.47-2.82-3.13l18.81-140.15l20.12-149.91l3.04-22.61L1429.36,930.51z"/>
				</g>
				<g>
					<path class="st34" d="M1525.95,930.51l-8.83,50.06v0l-24.4,138.29l-21.82,123.62c-0.33,1.87-2,3.24-3.95,3.24
						c-1.72,0-3.05-1.47-2.82-3.13l18.81-140.15l20.12-149.91l3.04-22.61L1525.95,930.51z"/>
				</g>
				<path class="st17" d="M1420.53,980.58c1.16-21.51-14.06-28.02-14.06-28.02l3.04-22.61l19.85,0.57L1420.53,980.58z"/>
				<g>
					<g>
						<path class="st34" d="M2008.86,1245.74c-1.95,0-3.62-1.37-3.95-3.24l-19.38-109.84l-27.87-157.97l-7.8-44.17l19.85-0.57
							l3.44,25.64l24.19,180.21l14.34,106.82C2011.9,1244.27,2010.58,1245.74,2008.86,1245.74z"/>
					</g>
					<path class="st17" d="M1973.16,955.59c-12.86,5.68-15.5,19.1-15.5,19.1l-7.8-44.17l19.85-0.57L1973.16,955.59z"/>
				</g>
				<g>
					<g>
						<path class="st34" d="M2120.17,1245.74c-1.95,0-3.62-1.37-3.95-3.24l-19.38-109.84l-27.87-157.97l-7.79-44.17l19.85-0.57
							l3.44,25.64l24.19,180.21l14.34,106.82C2123.22,1244.27,2121.89,1245.74,2120.17,1245.74z"/>
					</g>
					<path class="st17" d="M2084.47,955.59c-12.86,5.68-15.5,19.1-15.5,19.1l-7.79-44.17l19.85-0.57L2084.47,955.59z"/>
				</g>
				<path class="st35" d="M2117.49,947.86h-782.12c-9.44,0-17.17-7.72-17.17-17.16v-0.36c0-9.44,7.72-17.17,17.17-17.17h782.12
					c9.44,0,17.17,7.72,17.17,17.17v0.36C2134.65,940.13,2126.93,947.86,2117.49,947.86z"/>
			</g>
		</g>
	</g>
	<path class="st36" d="M2595.59,1250.25H27.51c-1.9,0-3.46-1.56-3.46-3.46v0c0-1.9,1.56-3.46,3.46-3.46h2568.08
		c1.9,0,3.46,1.56,3.46,3.46l0,0C2599.05,1248.69,2597.49,1250.25,2595.59,1250.25z"/>
</g>
</svg>
