<?xml version="1.0" encoding="utf-8"?>
<!-- Generator: Adobe Illustrator 25.4.1, SVG Export Plug-In . SVG Version: 6.00 Build 0)  -->
<svg version="1.1" id="Layer_1" xmlns="http://www.w3.org/2000/svg" xmlns:xlink="http://www.w3.org/1999/xlink" x="0px" y="0px"
	 viewBox="0 0 500 400" style="enable-background:new 0 0 500 400;" xml:space="preserve">
<style type="text/css">
	.st0{fill:#C2A0A9;}
	.st1{fill:#58857A;}
	.st2{fill:#76A699;}
	.st3{fill:#9FC7BD;}
	.st4{fill:#FFFFFF;}
	.st5{fill:#EEE4D9;}
	.st6{fill:#444244;}
	.st7{fill:#BEC0C2;}
	.st8{fill:#9EBFD8;}
	.st9{fill:#CC882A;}
	.st10{fill:#D6723A;}
	.st11{opacity:0.8;}
	.st12{fill:#514342;}
	.st13{opacity:0.8;fill:#514342;}
	.st14{fill:#D1868D;}
	.st15{opacity:0.3;}
	.st16{fill:#72787A;}
	.st17{clip-path:url(#XMLID_00000146501040127955864750000009006653590372444303_);}
	.st18{fill:#5A3B2A;}
	.st19{fill:#E7D2C5;}
	.st20{fill:#FFE595;}
	.st21{fill:#513D17;}
	.st22{fill:#D16A4B;}
	.st23{fill:#AE584B;}
	.st24{fill:#84534A;}
	.st25{fill:#BA3213;}
	.st26{fill:#FCBDA9;}
	.st27{opacity:0.5;fill:#D1778E;}
	.st28{fill:#637690;}
	.st29{fill:#3B3348;}
	.st30{fill:#DDD9D3;}
	.st31{opacity:0.5;fill:#3B3348;}
	.st32{fill:#9C9FA0;}
	.st33{fill:#F99889;}
	.st34{fill:#F47697;}
	.st35{fill:#2E5151;}
	.st36{opacity:0.5;fill:#F14975;}
	.st37{fill:#4D3930;}
	.st38{fill:#44322B;}
	.st39{fill:#382823;}
	.st40{fill:#626B6D;}
	.st41{fill:#FEAE65;}
	.st42{fill:#E0DFEA;}
	.st43{opacity:0.5;fill:#9EBFD8;}
</style>
<g id="XMLID_1384_">
	<g id="XMLID_514_">
		<g id="XMLID_513_">
			<path class="st0" d="M213.58,363.58c-34.74,0-70.04-6.15-107.7-18.76c-26.99-9.04-43.14-20.05-49.35-33.69
				c-7.2-15.8-0.2-32.73,6.57-49.11c5.12-12.39,9.97-24.09,8.82-34.97c-1.48-14.09-7.47-24.61-13.27-34.79
				c-9.36-16.46-18.21-32-5.38-59.27c10.45-22.21,27.16-41.33,49.69-56.81c18.95-13.02,41.93-23.47,68.31-31.05
				c47.48-13.64,94.72-14.57,114.89-11.86c35.95,4.83,55.33,20.03,70.89,32.24c9.82,7.71,18.3,14.36,28.54,16.47
				c1.79,0.37,3.59,0.73,5.39,1.1c38.29,7.78,77.89,15.82,68.72,63.92c-3.81,20.01-9.98,34-15.43,46.34
				c-8.06,18.28-14.43,32.72-9.32,57.81c1.91,9.39,4.3,18.12,6.41,25.81c7.5,27.42,12.92,47.24-11.05,64.99
				c-17.04,12.62-35.8,10.37-57.52,7.76c-17.38-2.09-37.09-4.45-59.87,0.24c-3.21,0.66-6.45,1.34-9.73,2.04
				c-24.23,5.1-51.69,10.88-83.68,11.53C217.54,363.56,215.56,363.58,213.58,363.58z M263.72,33.74c-23.78,0-57.81,3.2-91.98,13.02
				c-40.11,11.53-92.95,35.97-116.93,86.95c-12.45,26.48-4.22,40.95,5.32,57.71c5.88,10.33,11.96,21.02,13.48,35.46
				c1.19,11.31-3.73,23.2-8.94,35.8c-6.63,16.04-13.49,32.62-6.6,47.75c6.01,13.18,21.82,23.9,48.35,32.78
				c88.9,29.76,146.03,17.73,196.42,7.12c3.29-0.69,6.53-1.38,9.74-2.04c23.05-4.75,42.9-2.37,60.41-0.27
				c21.35,2.56,39.8,4.78,56.3-7.44c23.04-17.06,18.02-35.4,10.43-63.17c-2.11-7.72-4.51-16.47-6.43-25.92
				c-5.22-25.62,1.25-40.28,9.43-58.83c5.41-12.26,11.54-26.16,15.31-45.98c4.02-21.12-1.03-35.54-15.89-45.4
				c-13.2-8.76-32.67-12.71-51.51-16.53c-1.8-0.37-3.6-0.73-5.4-1.1c-10.63-2.19-19.26-8.96-29.25-16.8
				c-15.4-12.09-34.57-27.13-70.07-31.9C280.4,34.21,272.81,33.74,263.72,33.74z"/>
		</g>
	</g>
	<g id="XMLID_1159_">
		<g id="XMLID_1314_">
			<path class="st1" d="M295.46,234.69l-0.74-0.18c14.46-58.08,27.97-91.98,45.18-113.33l0.59,0.48
				C323.36,142.92,309.9,176.72,295.46,234.69z"/>
		</g>
		<path id="XMLID_1313_" class="st1" d="M332.01,132.51c0.77-6.01,5.79-19.88,12.93-18.91c7.15,0.96-0.95,11.08-6.72,14.97
			C334.35,131.16,332.01,132.51,332.01,132.51z"/>
		<path id="XMLID_1312_" class="st1" d="M325.59,143.67c2.95-5.4,8.76-10.45,16.09-10.69c4.3-0.14,5.79,8.21-4.38,8.16
			C329.82,141.11,325.59,143.67,325.59,143.67z"/>
		<path id="XMLID_1311_" class="st1" d="M325.92,143.14c2.85-12.13-0.61-21.11-5.94-20.06c-5.33,1.05-2.25,8.72,1.1,11.68
			C324.42,137.72,325.92,143.14,325.92,143.14z"/>
		<path id="XMLID_1310_" class="st1" d="M319.45,156.56c6.52-9.39,14.35-10.48,17.89-8.36c3.54,2.11,2.71,8.87-4.7,7.58
			C324.79,154.42,319.45,156.56,319.45,156.56z"/>
		<path id="XMLID_1309_" class="st1" d="M313.55,171.52c12.67-12.53,23.5-7.4,22.61-3.4c-0.89,4-7.13,2.86-12.34,2.26
			C318.62,169.77,313.55,171.52,313.55,171.52z"/>
		<path id="XMLID_1308_" class="st1" d="M308.4,186.66c13.34-13.6,25.4-11.01,26.42-6.04c1.02,4.96-2.99,5.93-12.63,3.59
			C312.45,181.85,308.4,186.66,308.4,186.66z"/>
		<path id="XMLID_1307_" class="st1" d="M319.61,156.25c2.47-17.38-8.37-21.94-12.11-17.2c-3.74,4.74,6.57,7.95,8.66,11.75
			C318.24,154.6,319.61,156.25,319.61,156.25z"/>
		<path id="XMLID_1306_" class="st1" d="M314,170.43c0.3-8.93-4.17-19.9-10.43-19.91c-6.26-0.01-5.58,6.76-0.83,9.05
			C309.83,163,314,170.43,314,170.43z"/>
		<path id="XMLID_1305_" class="st1" d="M303.28,204.22c4.92-8.11,20.47-14.07,26.59-8.33c6.12,5.74-3.03,9.28-10.62,7.2
			C311.66,200.99,303.28,204.22,303.28,204.22z"/>
		<path id="XMLID_1304_" class="st1" d="M297.7,224.22c8.1-13.35,24.93-13.92,31.4-7.28c6.47,6.64-5.2,9-14.97,5.1
			C304.36,218.14,297.7,224.22,297.7,224.22z"/>
		<path id="XMLID_1303_" class="st1" d="M308.69,184.67c-3.22-18.86-14.63-20.47-17.49-15.87
			C288.34,173.41,308.69,184.67,308.69,184.67z"/>
		<path id="XMLID_1302_" class="st1" d="M302.76,203.96c0.96-14.13-10.84-24.39-17.02-20.42c-6.18,3.97,6.27,8.88,9.65,11.88
			C298.77,198.41,302.76,203.96,302.76,203.96z"/>
		<path id="XMLID_1301_" class="st1" d="M297.65,224.19c-3.67-14.47-17.58-29-22.57-22.06c-4.42,6.14,2.66,8.8,14.19,12.38
			C295.63,216.48,297.65,224.19,297.65,224.19z"/>
		<g id="XMLID_1300_">
			<path class="st2" d="M297.86,237.26l-0.68-0.34c15.6-31.35,28.95-52.61,42.01-66.9c12.25-13.41,24.94-21.59,41.14-26.52
				l0.22,0.73C348.48,153.99,327.61,177.47,297.86,237.26z"/>
		</g>
		<path id="XMLID_1299_" class="st2" d="M367.76,148.62c8.76-10.81,18.49-11.42,19.13-5.98
			C387.78,150.26,367.76,148.62,367.76,148.62z"/>
		<path id="XMLID_1298_" class="st2" d="M356.88,154.78c14.55-1.3,21.85,2.48,21.6,6.8c-0.25,4.32-4.06,4.47-11.7-0.35
			C359.14,156.4,356.88,154.78,356.88,154.78z"/>
		<path id="XMLID_1297_" class="st2" d="M358.18,153.91c5.16-7.58,5.62-18.61-2.18-18.52c-7.8,0.09,0.98,9.83,1.83,12.83
			C358.64,151.08,358.18,153.91,358.18,153.91z"/>
		<path id="XMLID_1296_" class="st2" d="M343.69,165.88c13.56-6.92,27.79-1.82,25.37,5.87c-2.42,7.69-8.99-1.78-14.42-3.56
			C349.2,166.41,343.69,165.88,343.69,165.88z"/>
		<path id="XMLID_1295_" class="st2" d="M338.65,144.75c6.73-2.46,13.52,9.91,5.71,20.41c0,0,0.72-6.54-5.77-11.63
			C332.11,148.44,335.8,145.79,338.65,144.75z"/>
		<path id="XMLID_1294_" class="st2" d="M328.12,184.24c7.7-10.56,21.56-9.4,26.44-3.94c4.89,5.46-0.19,9-4.23,8.77
			c-4.04-0.23-7.32-4.85-13.29-5.14C331.07,183.64,328.12,184.24,328.12,184.24z"/>
		<path id="XMLID_1293_" class="st2" d="M331.36,179.49c4.32-12.35-0.15-22.27-8.22-20.29c-8.06,1.98,4.08,8.61,5.9,12.77
			C330.86,176.14,331.36,179.49,331.36,179.49z"/>
		<path id="XMLID_1292_" class="st2" d="M317.75,199.6c21-11.57,30.96-2.05,28.36,3.62c-2.61,5.67-12.6-1.22-16.6-2.86
			C324.42,198.27,317.75,199.6,317.75,199.6z"/>
		<path id="XMLID_1291_" class="st2" d="M307.27,218.31c28.09-20.96,47.51,8.79,17.78,1.46
			C314.9,217.28,307.27,218.31,307.27,218.31z"/>
		<path id="XMLID_1290_" class="st2" d="M310.28,212.74c0.33-13.01-12.08-25.57-17.46-18.13c-5.38,7.45,10.95,10.74,13.56,13.88
			C308.99,211.63,310.28,212.74,310.28,212.74z"/>
		<path id="XMLID_1289_" class="st2" d="M317.75,199.6c3.95-4.53,3.88-23.26-6.25-25.29c-10.13-2.03-3.91,10.94,0.08,15.54
			C315.56,194.44,317.75,199.6,317.75,199.6z"/>
		<path id="XMLID_1183_" class="st2" d="M300.06,232.63c16.11-11.13,26.83,8.18,8.34,0.51C303.96,231.3,300.06,232.63,300.06,232.63
			z"/>
		<path id="XMLID_1182_" class="st2" d="M301.78,228.57c1.82-9.35-5.79-17.83-10.98-12.96c-5.19,4.87,9.1,7.92,10.2,10.55
			C302.11,228.78,301.78,228.57,301.78,228.57z"/>
		<g id="XMLID_1181_">
			<path class="st3" d="M293.63,233.72l-0.76-0.07c1.67-19.21-3.66-61.09-35.71-82.07l0.41-0.63
				C289.93,172.12,295.31,214.35,293.63,233.72z"/>
		</g>
		<g id="XMLID_1180_">
			<path class="st1" d="M313.8,238.54l-0.4-0.64c24.03-15.19,55.63-10.61,55.95-10.56l-0.11,0.75
				C368.91,228.04,337.58,223.5,313.8,238.54z"/>
		</g>
		<path id="XMLID_1179_" class="st1" d="M354.31,226.98c9.72-4.62,15.58-5.31,18.98-0.17c3.41,5.14-4.82,5.85-10.3,3.75
			C357.52,228.47,354.31,226.98,354.31,226.98z"/>
		<path id="XMLID_1178_" class="st1" d="M338.28,228.66c15.57,0.94,24.64,8.42,22.39,15.67c-2.25,7.25-8.59-6.02-12.65-9.85
			C343.95,230.66,338.28,228.66,338.28,228.66z"/>
		<path id="XMLID_1177_" class="st1" d="M324.53,232.55c12.05,0.37,22.87,10.1,22.92,15.53s-10.35,5.71-15.08-3.15
			C327.63,236.08,324.53,232.55,324.53,232.55z"/>
		<path id="XMLID_1175_" class="st1" d="M339.67,228.52c10.34-3.02,9.12-13.27,4.7-17.42c-4.42-4.15-8.04-1.66-6.31,4.21
			c1.1,3.74,4.71,5.91,3.2,10.08C340.45,227.63,339.67,228.52,339.67,228.52z"/>
		<path id="XMLID_1173_" class="st1" d="M324.65,232.64c5.88-3.34,8.97-19.08-0.04-23.26c-8.23-3.83-10.82,3.5-3.67,10.83
			C325.65,225.03,324.65,232.64,324.65,232.64z"/>
		<path id="XMLID_1172_" class="st3" d="M264.07,156.49c-2.37-4.51-12.25-14.28-12.93-8.78
			C250.47,153.21,264.07,156.49,264.07,156.49z"/>
		<path id="XMLID_1171_" class="st3" d="M274.21,166.58c-3.94-4.42-7.82-18.98,0.45-16.88C282.94,151.8,274.21,166.58,274.21,166.58
			z"/>
		<path id="XMLID_1170_" class="st3" d="M274.21,166.58c-10.23-3.58-21.47-7.13-19.66-0.32
			C256.36,173.08,274.21,166.58,274.21,166.58z"/>
		<path id="XMLID_1169_" class="st3" d="M282.12,178.93c-2.06-13.01,5.15-20.96,11.01-16.64
			C298.99,166.62,282.12,178.93,282.12,178.93z"/>
		<path id="XMLID_1168_" class="st3" d="M284.26,183.56c-5.93-5.5-19.89-12-22.18-4.65C259.8,186.27,284.26,183.56,284.26,183.56z"
			/>
		<path id="XMLID_1167_" class="st3" d="M287.81,192.71c5.15-12.52,10.75-19.53,15.43-15.14
			C307.92,181.96,287.81,192.71,287.81,192.71z"/>
		<path id="XMLID_1166_" class="st3" d="M288.33,194.63c-8.68-4.93-23.71-9.7-24.12-2.44C263.8,199.46,288.33,194.63,288.33,194.63z
			"/>
		<path id="XMLID_1165_" class="st3" d="M291.9,207.78c1.89-12.04,13.64-20.7,16.99-13.61C312.23,201.27,291.9,207.78,291.9,207.78z
			"/>
		<path id="XMLID_1164_" class="st3" d="M291.7,209.03c-10.66-4.11-28.08-10.93-26.52-1.88C266.74,216.21,291.7,209.03,291.7,209.03
			z"/>
		<path id="XMLID_1163_" class="st3" d="M292.96,216.65c4.01-6.7,19.2-12.09,21.6-4.21C316.97,220.31,292.96,216.65,292.96,216.65z"
			/>
		<path id="XMLID_1162_" class="st3" d="M293.24,223.43c-1.45-2.8-18.01-12.09-19.86-5.57
			C271.53,224.38,293.24,223.43,293.24,223.43z"/>
	</g>
	<g id="XMLID_1161_">
		<g id="XMLID_1360_">
			<path class="st1" d="M205.18,251.9c-5.78-59.46-14.15-94.88-27.98-118.42l0.65-0.38c13.89,23.65,22.29,59.16,28.08,118.73
				L205.18,251.9z"/>
		</g>
		<path id="XMLID_1359_" class="st1" d="M184.01,145.45c0.12-6.06-2.81-20.51-10.02-20.61c-7.21-0.1-0.68,11.1,4.46,15.79
			C181.89,143.78,184.01,145.45,184.01,145.45z"/>
		<path id="XMLID_1358_" class="st1" d="M188.72,157.44c-2.13-5.78-7.14-11.62-14.35-12.93c-4.24-0.77-6.93,7.27,3.14,8.71
			C184.92,154.29,188.72,157.44,188.72,157.44z"/>
		<path id="XMLID_1357_" class="st1" d="M188.47,156.87c-1.04-12.42,3.7-20.79,8.82-18.97c5.12,1.82,0.95,8.95-2.8,11.39
			C190.75,151.72,188.47,156.87,188.47,156.87z"/>
		<path id="XMLID_1356_" class="st1" d="M192.91,171.1c-5.07-10.25-12.66-12.47-16.47-10.9c-3.81,1.57-3.98,8.38,3.54,8.19
			C187.94,168.19,192.91,171.1,192.91,171.1z"/>
		<path id="XMLID_1355_" class="st1" d="M196.55,186.75c-10.7-14.25-22.16-10.77-21.87-6.67c0.29,4.09,6.63,3.88,11.87,4.04
			C191.79,184.27,196.55,186.75,196.55,186.75z"/>
		<path id="XMLID_1354_" class="st1" d="M199.42,202.49c-11.2-15.4-23.51-14.61-25.25-9.85c-1.74,4.76,2.09,6.3,11.97,5.4
			C196.13,197.13,199.42,202.49,199.42,202.49z"/>
		<path id="XMLID_1353_" class="st1" d="M192.8,170.76c0.11-17.55,11.5-20.48,14.5-15.24c3,5.24-7.67,6.9-10.28,10.36
			C194.39,169.33,192.8,170.76,192.8,170.76z"/>
		<path id="XMLID_1352_" class="st1" d="M196.27,185.61c1.01-8.87,7.04-19.08,13.23-18.17c6.19,0.91,4.53,7.5-0.5,9.08
			C201.47,178.87,196.27,185.61,196.27,185.61z"/>
		<path id="XMLID_1351_" class="st1" d="M201.91,220.6c-3.68-8.74-18.18-16.92-25.08-12.14c-6.9,4.78,1.63,9.63,9.45,8.67
			C194.1,216.18,201.91,220.6,201.91,220.6z"/>
		<path id="XMLID_1350_" class="st1" d="M204.5,241.21c-6.05-14.4-22.62-17.42-30-11.81c-7.38,5.62,3.83,9.66,14.06,7.24
			C198.8,234.22,204.5,241.21,204.5,241.21z"/>
		<path id="XMLID_1349_" class="st1" d="M199.43,200.48c5.95-18.18,17.48-18.11,19.63-13.13
			C221.21,192.32,199.43,200.48,199.43,200.48z"/>
		<path id="XMLID_1348_" class="st1" d="M202.47,220.42c1.12-14.11,14.3-22.54,19.83-17.7c5.53,4.84-7.5,7.87-11.29,10.33
			C207.22,215.52,202.47,220.42,202.47,220.42z"/>
		<path id="XMLID_1347_" class="st1" d="M204.56,241.18c5.75-13.77,21.64-26.11,25.56-18.51c3.47,6.72-3.92,8.31-15.85,10.16
			C207.68,233.86,204.56,241.18,204.56,241.18z"/>
		<g id="XMLID_1346_">
			<path class="st2" d="M202.44,254.08c-20.67-63.51-37.87-89.79-68.15-104.14l0.32-0.68c15.3,7.25,26.65,17.2,36.8,32.26
				c10.82,16.05,20.91,39.03,31.75,72.33L202.44,254.08z"/>
		</g>
		<path id="XMLID_1345_" class="st2" d="M146.28,156.15c-7.08-11.98-16.61-14.01-18.04-8.72
			C126.24,154.84,146.28,156.15,146.28,156.15z"/>
		<path id="XMLID_1344_" class="st2" d="M156.14,163.84c-14.2-3.42-21.98-0.76-22.36,3.56c-0.38,4.31,3.36,5.01,11.63,1.37
			S156.14,163.84,156.14,163.84z"/>
		<path id="XMLID_1343_" class="st2" d="M154.99,162.79c-3.99-8.26-2.84-19.23,4.87-18c7.71,1.24-2.41,9.58-3.69,12.43
			C154.94,159.93,154.99,162.79,154.99,162.79z"/>
		<path id="XMLID_1342_" class="st2" d="M167.57,176.75c-12.4-8.84-27.22-5.87-25.95,2.09c1.26,7.96,9.16-0.45,14.79-1.41
			C162.03,176.48,167.57,176.75,167.57,176.75z"/>
		<path id="XMLID_1341_" class="st2" d="M175.65,156.6c-6.3-3.42-14.83,7.82-8.64,19.35c0,0,0.25-6.58,7.41-10.66
			C181.58,161.2,178.31,158.04,175.65,156.6z"/>
		<path id="XMLID_1340_" class="st2" d="M180.28,197.2c-6.06-11.58-19.95-12.46-25.58-7.78c-5.64,4.69-1.13,8.93,2.9,9.29
			c4.03,0.37,7.95-3.72,13.9-3.13C177.44,196.18,180.28,197.2,180.28,197.2z"/>
		<path id="XMLID_1339_" class="st2" d="M177.76,192.03c-2.47-12.85,3.42-22.01,11.1-18.86c7.69,3.14-5.29,7.91-7.7,11.77
			C178.75,188.79,177.76,192.03,177.76,192.03z"/>
		<path id="XMLID_1338_" class="st2" d="M188.28,213.91c-19.08-14.53-30.33-6.56-28.58-0.57c1.75,5.99,12.64,0.65,16.84-0.4
			C181.88,211.62,188.28,213.91,188.28,213.91z"/>
		<path id="XMLID_1337_" class="st2" d="M195.9,233.96c-24.71-24.85-48.28,1.73-17.8-1.16C188.5,231.82,195.9,233.96,195.9,233.96z"
			/>
		<path id="XMLID_1336_" class="st2" d="M193.74,228c1.58-12.92,15.7-23.52,19.93-15.37c4.23,8.15-12.41,9.02-15.45,11.75
			C195.18,227.1,193.74,228,193.74,228z"/>
		<path id="XMLID_1335_" class="st2" d="M188.28,213.91c-3.25-5.06-0.43-23.58,9.89-24.11c10.32-0.53,2.26,11.4-2.35,15.36
			C191.21,209.13,188.28,213.91,188.28,213.91z"/>
		<path id="XMLID_1334_" class="st2" d="M200.94,249.18c-14.3-13.37-27.74,4.16-8.33-0.72
			C197.27,247.29,200.94,249.18,200.94,249.18z"/>
		<path id="XMLID_1333_" class="st2" d="M199.83,244.92c-0.43-9.52,8.34-16.79,12.76-11.22c4.42,5.58-10.16,6.5-11.64,8.94
			C199.47,245.07,199.83,244.92,199.83,244.92z"/>
		<g id="XMLID_1332_">
			<path class="st3" d="M207.89,251.25l-0.76-0.05c1.18-19.41,12.68-60.39,47.8-76.59l0.32,0.69
				C220.46,191.35,209.06,232,207.89,251.25z"/>
		</g>
		<g id="XMLID_1331_">
			<path class="st1" d="M200.01,254.44c-21.24-18.29-52.73-18.46-53.29-18.46c-0.01,0-0.01-0.76-0.01-0.76
				c0.27,0,32.24,0.09,53.8,18.64L200.01,254.44z"/>
		</g>
		<path id="XMLID_1330_" class="st1" d="M161.63,237.08c-8.93-5.99-14.63-7.53-18.75-2.95c-4.12,4.58,3.91,6.5,9.64,5.22
			C158.24,238.08,161.63,237.08,161.63,237.08z"/>
		<path id="XMLID_1329_" class="st1" d="M177.24,241.08c-15.54-1.35-25.61,4.72-24.44,12.22c1.17,7.5,9.38-4.69,13.96-7.89
			C171.34,242.23,177.24,241.08,177.24,241.08z"/>
		<path id="XMLID_1328_" class="st1" d="M190.27,246.95c-11.97-1.4-24.1,6.64-24.95,12s9.4,7.17,15.38-0.9
			C186.69,249.98,190.27,246.95,190.27,246.95z"/>
		<path id="XMLID_1327_" class="st1" d="M175.89,240.74c-9.79-4.5-7.07-14.46-2.1-17.92c4.98-3.46,8.19-0.46,5.63,5.09
			c-1.64,3.54-5.53,5.16-4.64,9.5C175.25,239.75,175.89,240.74,175.89,240.74z"/>
		<path id="XMLID_1326_" class="st1" d="M190.14,247.01c-5.32-4.17-6.08-20.18,3.45-23.01c8.7-2.58,10.19,5.05,2.04,11.25
			C190.27,239.34,190.14,247.01,190.14,247.01z"/>
		<path id="XMLID_1325_" class="st3" d="M247.69,179.14c3-4.11,14.21-12.33,14.08-6.79C261.64,177.89,247.69,179.14,247.69,179.14z"
			/>
		<path id="XMLID_1324_" class="st3" d="M236.18,187.64c4.55-3.79,10.51-17.63,2.03-16.77S236.18,187.64,236.18,187.64z"/>
		<path id="XMLID_1323_" class="st3" d="M236.18,187.64c10.65-2.04,22.28-3.91,19.5,2.57C252.89,196.68,236.18,187.64,236.18,187.64
			z"/>
		<path id="XMLID_1322_" class="st3" d="M226.55,198.69c3.95-12.57-2.02-21.48-8.45-18.07
			C211.67,184.04,226.55,198.69,226.55,198.69z"/>
		<path id="XMLID_1321_" class="st3" d="M223.76,202.96c6.67-4.57,21.44-8.96,22.62-1.35C247.56,209.22,223.76,202.96,223.76,202.96
			z"/>
		<path id="XMLID_1320_" class="st3" d="M218.91,211.49c-3.26-13.14-7.77-20.89-13.05-17.24
			C200.58,197.91,218.91,211.49,218.91,211.49z"/>
		<path id="XMLID_1319_" class="st3" d="M218.11,213.31c9.3-3.6,24.88-6.12,24.22,1.12C241.67,221.68,218.11,213.31,218.11,213.31z"
			/>
		<path id="XMLID_1318_" class="st3" d="M212.65,225.8c-0.11-12.19-10.46-22.47-14.81-15.95
			C193.49,216.37,212.65,225.8,212.65,225.8z"/>
		<path id="XMLID_1317_" class="st3" d="M212.67,227.06c11.15-2.5,29.37-6.7,26.51,2.03S212.67,227.06,212.67,227.06z"/>
		<path id="XMLID_1316_" class="st3" d="M210.3,234.41c-2.98-7.22-17.22-14.77-20.75-7.33C186.01,234.51,210.3,234.41,210.3,234.41z
			"/>
		<path id="XMLID_1315_" class="st3" d="M209.03,241.08c1.85-2.56,19.59-9.32,20.46-2.59C230.36,245.21,209.03,241.08,209.03,241.08
			z"/>
	</g>
	<g id="XMLID_1184_">
		<g id="XMLID_1245_">
			<g id="XMLID_1281_">
				<g id="XMLID_1288_">
					<path class="st4" d="M301.72,188.3c-121.23,0-119.77,2.01-119.77-4.91c0-87.22-1.85-87.86,4.91-87.86
						c121.23,0,119.77-2.01,119.77,4.91v82.95C306.63,186.11,304.43,188.3,301.72,188.3z"/>
					<path class="st5" d="M211.65,189.14c-21.83,0-27.52-0.42-29.4-2.29c-0.87-0.86-0.86-1.95-0.86-3.21l0-0.24
						c0-18.72-0.08-33.32-0.15-45.05c-0.19-32.38-0.23-40.08,2.11-42.43c0.94-0.95,2.2-0.95,3.52-0.95c27.34,0,48.07-0.1,64.72-0.18
						c43.29-0.21,52.29-0.25,54.75,2.2c0.87,0.86,0.86,1.95,0.86,3.21l0,0.24v82.95c0,3.02-2.46,5.48-5.48,5.48
						c-27.34,0-48.07,0.1-64.73,0.18C226.75,189.1,218.42,189.14,211.65,189.14z M276.84,95.84c-6.79,0-15.1,0.04-25.25,0.09
						c-16.66,0.08-37.38,0.18-64.73,0.18c-1.31,0-2.14,0.03-2.72,0.61c-2,2.02-1.95,11.2-1.78,41.62
						c0.07,11.73,0.15,26.33,0.15,45.05l0,0.25c0,1.23,0.02,1.9,0.53,2.4c2.13,2.12,13.1,2.07,53.94,1.87
						c16.66-0.08,37.39-0.18,64.73-0.18c2.39,0,4.34-1.95,4.34-4.34l0-83.19c0-1.23-0.02-1.9-0.53-2.4
						C303.94,96.2,297.34,95.84,276.84,95.84z"/>
				</g>
				<g id="XMLID_1287_">
					<path class="st6" d="M306.63,100.15H181.95c0-2.55,2.06-4.61,4.61-4.61C309.38,95.54,306.63,93.81,306.63,100.15z"/>
					<path class="st6" d="M307.2,100.72H181.38v-0.57c0-2.85,2.32-5.18,5.18-5.18c26.46,0,46.82-0.08,63.18-0.14
						c46.09-0.18,54.39-0.21,56.7,2.11c0.77,0.78,0.76,1.76,0.75,2.81L307.2,100.72z M182.56,99.58h123.51
						c0.01-0.93-0.03-1.44-0.42-1.85c-1.97-1.98-13.39-1.94-55.89-1.77c-16.36,0.06-36.72,0.14-63.19,0.14
						C184.52,96.11,182.83,97.62,182.56,99.58z"/>
				</g>
				<g id="XMLID_1282_">
					<path id="XMLID_1286_" class="st7" d="M301.25,99.09c1.39,0,2.02,0.14,2.02-0.47c0-1.39,0.14-2.02-0.47-2.02
						c-1.39,0-2.02-0.14-2.02,0.47C300.79,98.46,300.65,99.09,301.25,99.09z"/>
					<g id="XMLID_1283_">
						<g id="XMLID_1285_">
							<path class="st4" d="M301.31,98.85c-0.07,0-0.14-0.03-0.2-0.08c-0.11-0.11-0.11-0.29,0-0.4l1.45-1.45
								c0.11-0.11,0.29-0.11,0.4,0c0.11,0.11,0.11,0.29,0,0.4l-1.45,1.45C301.45,98.82,301.38,98.85,301.31,98.85z"/>
						</g>
						<g id="XMLID_1284_">
							<path class="st4" d="M302.76,98.85c-0.07,0-0.14-0.03-0.2-0.08l-1.45-1.45c-0.11-0.11-0.11-0.29,0-0.4
								c0.11-0.11,0.29-0.11,0.4,0l1.45,1.45c0.11,0.11,0.11,0.29,0,0.4C302.9,98.82,302.83,98.85,302.76,98.85z"/>
						</g>
					</g>
				</g>
			</g>
			<g id="XMLID_1246_">
				<g id="XMLID_1267_">
					<g id="XMLID_1277_">
						<g id="XMLID_1280_">
							<path class="st5" d="M200.74,107.86h-12.29c-0.16,0-0.28-0.13-0.28-0.28c0-0.16,0.13-0.28,0.28-0.28h12.29
								c0.16,0,0.28,0.13,0.28,0.28C201.02,107.73,200.89,107.86,200.74,107.86z"/>
						</g>
						<g id="XMLID_1279_">
							<path class="st5" d="M200.74,176.55h-12.29c-0.16,0-0.28-0.13-0.28-0.28c0-0.16,0.13-0.28,0.28-0.28h12.29
								c0.16,0,0.28,0.13,0.28,0.28C201.02,176.43,200.89,176.55,200.74,176.55z"/>
						</g>
						<g id="XMLID_1278_">
							<path class="st5" d="M188.45,176.55c-0.16,0-0.28-0.13-0.28-0.28v-68.7c0-0.16,0.13-0.28,0.28-0.28
								c0.16,0,0.28,0.13,0.28,0.28v68.7C188.73,176.43,188.6,176.55,188.45,176.55z"/>
						</g>
					</g>
					<g id="XMLID_1273_">
						<g id="XMLID_1276_">
							<path class="st5" d="M205.75,114.15h-10.04c-0.16,0-0.28-0.13-0.28-0.28c0-0.16,0.13-0.28,0.28-0.28h10.04
								c0.16,0,0.28,0.13,0.28,0.28C206.04,114.02,205.91,114.15,205.75,114.15z"/>
						</g>
						<g id="XMLID_1275_">
							<path class="st5" d="M205.75,170.26h-10.04c-0.16,0-0.28-0.13-0.28-0.28s0.13-0.28,0.28-0.28h10.04
								c0.16,0,0.28,0.13,0.28,0.28S205.91,170.26,205.75,170.26z"/>
						</g>
						<g id="XMLID_1274_">
							<path class="st5" d="M195.72,170.26c-0.16,0-0.28-0.13-0.28-0.28v-56.12c0-0.16,0.13-0.28,0.28-0.28
								c0.16,0,0.28,0.13,0.28,0.28v56.12C196,170.14,195.87,170.26,195.72,170.26z"/>
						</g>
					</g>
					<g id="XMLID_1269_">
						<g id="XMLID_1272_">
							<path class="st5" d="M211.92,122.5h-7.05c-0.16,0-0.28-0.13-0.28-0.28c0-0.16,0.13-0.28,0.28-0.28h7.05
								c0.16,0,0.28,0.13,0.28,0.28C212.21,122.37,212.08,122.5,211.92,122.5z"/>
						</g>
						<g id="XMLID_1271_">
							<path class="st5" d="M211.92,161.91h-7.05c-0.16,0-0.28-0.13-0.28-0.28s0.13-0.28,0.28-0.28h7.05c0.16,0,0.28,0.13,0.28,0.28
								S212.08,161.91,211.92,161.91z"/>
						</g>
						<g id="XMLID_1270_">
							<path class="st5" d="M204.87,161.91c-0.16,0-0.28-0.13-0.28-0.28v-39.41c0-0.16,0.13-0.28,0.28-0.28
								c0.16,0,0.28,0.13,0.28,0.28v39.41C205.16,161.79,205.03,161.91,204.87,161.91z"/>
						</g>
					</g>
					<g id="XMLID_1268_">
						<path class="st5" d="M212.92,161.91c-0.16,0-0.28-0.13-0.28-0.28v-9.76c0-0.16,0.13-0.28,0.28-0.28
							c0.16,0,0.28,0.13,0.28,0.28v9.76C213.2,161.79,213.07,161.91,212.92,161.91z"/>
					</g>
					<g id="XMLID_1255_">
						<path class="st5" d="M215.21,132.89h-10.34c-0.16,0-0.28-0.13-0.28-0.28c0-0.16,0.13-0.28,0.28-0.28h10.34
							c0.16,0,0.28,0.13,0.28,0.28C215.5,132.76,215.37,132.89,215.21,132.89z"/>
					</g>
				</g>
				<g id="XMLID_1247_">
					<path id="XMLID_1266_" class="st8" d="M214.84,109.83c-24.38,0-23.68,0.29-23.68-0.68c0-3.05-0.2-3.84,0.68-3.84
						c24.38,0,23.68-0.29,23.68,0.68C215.52,109.04,215.72,109.83,214.84,109.83z"/>
					<path id="XMLID_1265_" class="st9" d="M224.42,116.34c-24.38,0-23.68,0.29-23.68-0.68c0-3.05-0.2-3.84,0.68-3.84
						c24.38,0,23.68-0.29,23.68,0.68C225.1,115.55,225.3,116.34,224.42,116.34z"/>
					<path id="XMLID_1264_" class="st10" d="M214.84,124.47c-6.56,0-7.09,0.23-7.09-0.68c0-3.05-0.2-3.84,0.68-3.84
						c6.56,0,7.09-0.23,7.09,0.68C215.52,123.69,215.72,124.47,214.84,124.47z"/>
					<path id="XMLID_1258_" class="st10" d="M216.12,163.89c-6.56,0-7.09,0.23-7.09-0.68c0-3.05-0.2-3.84,0.68-3.84
						c6.56,0,7.09-0.23,7.09,0.68C216.8,163.1,217,163.89,216.12,163.89z"/>
					<path id="XMLID_1257_" class="st10" d="M216.12,154.21c-6.56,0-7.09,0.23-7.09-0.68c0-3.05-0.2-3.84,0.68-3.84
						c6.56,0,7.09-0.23,7.09,0.68C216.8,153.43,217,154.21,216.12,154.21z"/>
					<path id="XMLID_1254_" class="st9" d="M219.26,172.13c-18.9,0-18.52,0.29-18.52-0.68c0-3.05-0.2-3.84,0.68-3.84h17.84
						c0.37,0,0.68,0.3,0.68,0.68v3.16C219.93,171.82,219.63,172.13,219.26,172.13z"/>
					<path id="XMLID_1259_" class="st9" d="M241.37,172.13h-17.84c-0.37,0-0.68-0.3-0.68-0.68v-3.16c0-0.37,0.3-0.68,0.68-0.68
						h17.84c0.37,0,0.68,0.3,0.68,0.68v3.16C242.05,171.82,241.75,172.13,241.37,172.13z"/>
					<path id="XMLID_1260_" class="st10" d="M265.69,144.7h-17.84c-0.37,0-0.68-0.3-0.68-0.68c0-3.05-0.2-3.84,0.68-3.84h17.84
						c0.37,0,0.68,0.3,0.68,0.68v3.16C266.37,144.4,266.07,144.7,265.69,144.7z"/>
					<path id="XMLID_1253_" class="st8" d="M204.19,178.53c-11.26,0-11.5,0.26-11.5-0.68c0-3.05-0.2-3.84,0.68-3.84
						c11.26,0,11.5-0.26,11.5,0.68v3.16C204.87,178.23,204.57,178.53,204.19,178.53z"/>
					<path id="XMLID_1252_" class="st9" d="M262.06,109.83c-44.67,0-42.48,0.31-42.48-0.68c0-3.05-0.2-3.84,0.68-3.84
						c44.67,0,42.48-0.31,42.48,0.68v3.16C262.74,109.53,262.44,109.83,262.06,109.83z"/>
					<path id="XMLID_1251_" class="st8" d="M254.04,154.21c-35.74,0-34.11,0.28-34.11-0.61c0-3.27-0.18-3.91,0.61-3.91h33.5
						c0.34,0,0.61,0.27,0.61,0.61v3.3C254.65,153.94,254.38,154.21,254.04,154.21z"/>
					<path id="XMLID_1249_" class="st8" d="M250.24,134.87c-44.67,0-42.48,0.31-42.48-0.68c0-3.05-0.2-3.84,0.68-3.84
						c44.67,0,42.48-0.31,42.48,0.68v3.16C250.92,134.56,250.61,134.87,250.24,134.87z"/>
					<path id="XMLID_1248_" class="st9" d="M280.83,109.83c-10.33,0-10.18,0.17-10.18-0.41c0-3.69-0.16-4.11,0.41-4.11
						c10.33,0,10.18-0.17,10.18,0.41C281.23,109.41,281.4,109.83,280.83,109.83z"/>
					<path id="XMLID_1250_" class="st10" d="M293.52,109.83c-10.33,0-10.18,0.17-10.18-0.41c0-3.69-0.16-4.11,0.41-4.11
						c10.33,0,10.18-0.17,10.18,0.41C293.93,109.41,294.09,109.83,293.52,109.83z"/>
				</g>
			</g>
		</g>
		<g id="XMLID_1211_">
			<g id="XMLID_1237_">
				<g id="XMLID_1244_">
					<path class="st4" d="M347.16,265.99c-105.81,0-103.74,1.62-103.74-3.87c0-61.8-1.46-62.86,3.87-62.86
						c105.81,0,103.74-1.62,103.74,3.87v58.99C351.03,264.26,349.3,265.99,347.16,265.99z"/>
					<path class="st5" d="M268.14,266.78c-18.77,0-23.09-0.34-24.6-1.86c-0.69-0.69-0.69-1.57-0.68-2.5l0-0.31
						c0-13.24-0.07-23.61-0.12-31.94c-0.15-23.28-0.18-28.81,1.67-30.67c0.74-0.75,1.71-0.81,2.89-0.81c24.21,0,42.39-0.08,57-0.15
						c37.83-0.17,44.65-0.2,46.63,1.78c0.69,0.69,0.69,1.57,0.68,2.5l0,0.31v58.99c0,2.45-1.99,4.43-4.43,4.43
						c-24.21,0-42.39,0.08-57,0.15C281.2,266.75,273.97,266.78,268.14,266.78z M326.05,199.61c-5.83,0-12.98,0.03-21.76,0.07
						c-14.61,0.07-32.79,0.15-57,0.15c-1.12,0-1.68,0.07-2.08,0.47c-1.52,1.53-1.48,8.67-1.34,29.87
						c0.05,8.33,0.12,18.71,0.12,31.95l0,0.31c-0.01,0.87,0.01,1.34,0.35,1.69c1.65,1.65,11.01,1.61,45.82,1.45
						c14.61-0.07,32.79-0.15,57-0.15c1.82,0,3.3-1.48,3.3-3.3l0-59.3c0.01-0.87-0.01-1.34-0.35-1.69
						C348.89,199.9,343.34,199.61,326.05,199.61z"/>
				</g>
				<g id="XMLID_1243_">
					<path class="st6" d="M351.03,202.58H243.42c0-1.83,1.49-3.32,3.32-3.32C354.74,199.27,351.03,198.01,351.03,202.58z"/>
					<path class="st6" d="M351.6,203.15H242.86v-0.57c0-2.14,1.74-3.88,3.88-3.88c23.44,0,41.33-0.06,55.71-0.1
						c40.67-0.13,46.92-0.15,48.64,1.61c0.56,0.57,0.54,1.28,0.52,1.96c0,0.13-0.01,0.28-0.01,0.42V203.15z M244.05,202.02h106.43
						c0.01-0.54,0-0.82-0.2-1.02c-1.38-1.42-11.22-1.38-47.82-1.26c-14.38,0.05-32.27,0.1-55.71,0.1
						C245.42,199.83,244.31,200.77,244.05,202.02z"/>
				</g>
				<g id="XMLID_1238_">
					<path id="XMLID_1242_" class="st7" d="M346.36,201.82c0.93,0,1.78,0.19,1.78-0.37c0-0.68,0.16-1.42-0.37-1.42
						c-0.93,0-1.78-0.19-1.78,0.37C345.99,201.07,345.83,201.82,346.36,201.82z"/>
					<g id="XMLID_1239_">
						<g id="XMLID_1241_">
							<path class="st4" d="M346.44,201.73c-0.08,0-0.16-0.03-0.22-0.1c-0.1-0.12-0.08-0.3,0.04-0.4l1.25-1.04
								c0.12-0.1,0.3-0.08,0.4,0.04c0.1,0.12,0.08,0.3-0.04,0.4l-1.25,1.04C346.57,201.71,346.5,201.73,346.44,201.73z"/>
						</g>
						<g id="XMLID_1240_">
							<path class="st4" d="M347.69,201.73c-0.06,0-0.13-0.02-0.18-0.07l-1.25-1.04c-0.12-0.1-0.14-0.28-0.04-0.4
								c0.1-0.12,0.28-0.14,0.4-0.04l1.25,1.04c0.12,0.1,0.14,0.28,0.04,0.4C347.85,201.69,347.77,201.73,347.69,201.73z"/>
						</g>
					</g>
				</g>
			</g>
			<g id="XMLID_1212_">
				<g id="XMLID_1230_" class="st11">
					<path id="XMLID_1377_" class="st12" d="M286.48,260.75c0-1.84-0.18-2.7,0.63-2.7c1.84,0,2.7-0.18,2.7,0.63
						c0,1.84,0.18,2.7-0.63,2.7C287.34,261.38,286.48,261.57,286.48,260.75z"/>
					<path id="XMLID_1376_" class="st12" d="M279.17,260.75c0-1.84-0.18-2.7,0.63-2.7c1.84,0,2.7-0.18,2.7,0.63
						c0,1.84,0.18,2.7-0.63,2.7C280.03,261.38,279.17,261.57,279.17,260.75z"/>
					<path id="XMLID_1375_" class="st12" d="M271.38,260.75c0-1.84-0.18-2.7,0.63-2.7c1.84,0,2.7-0.18,2.7,0.63
						c0,1.84,0.18,2.7-0.63,2.7C272.24,261.38,271.38,261.57,271.38,260.75z"/>
					<path id="XMLID_1374_" class="st12" d="M265,260.75c0-1.84-0.18-2.7,0.63-2.7c1.84,0,2.7-0.18,2.7,0.63
						c0,1.84,0.18,2.7-0.63,2.7C265.86,261.38,265,261.57,265,260.75z"/>
					<path id="XMLID_1373_" class="st12" d="M257.53,260.75c0-1.84-0.18-2.7,0.63-2.7c1.84,0,2.7-0.18,2.7,0.63
						c0,1.84,0.18,2.7-0.63,2.7C258.39,261.38,257.53,261.57,257.53,260.75z"/>
				</g>
				<path id="XMLID_1226_" class="st8" d="M271.22,210.6c-13.23,0-13.68,0.36-13.68-1c0-1.01-0.2-2.33,1-2.33
					c13.23,0,13.68-0.36,13.68,1C272.21,209.28,272.42,210.6,271.22,210.6z"/>
				<path id="XMLID_1225_" class="st13" d="M320.27,210.6c-45.75,0-44.21,0.45-44.21-1c0-1.01-0.2-2.33,1-2.33
					c45.75,0,44.21-0.45,44.21,1v1.33C321.27,210.16,320.82,210.6,320.27,210.6z"/>
				<path id="XMLID_1224_" class="st13" d="M320.27,225.23c-45.75,0-44.21,0.45-44.21-1c0-1.01-0.2-2.33,1-2.33h43.22
					c0.55,0,1,0.45,1,1v1.33C321.27,224.78,320.82,225.23,320.27,225.23z"/>
				<path id="XMLID_1223_" class="st13" d="M320.27,239.85h-43.22c-1.44,0-1.44-3.33,0-3.33h43.22c0.55,0,1,0.45,1,1v1.33
					C321.27,239.41,320.82,239.85,320.27,239.85z"/>
				<path id="XMLID_1222_" class="st13" d="M320.27,254.48c-45.75,0-44.21,0.45-44.21-1c0-1.01-0.2-2.33,1-2.33
					c45.75,0,44.21-0.45,44.21,1C321.27,253.16,321.47,254.48,320.27,254.48z"/>
				<path id="XMLID_1221_" class="st8" d="M271.22,217.91c-13.23,0-13.68,0.36-13.68-1c0-1.01-0.2-2.33,1-2.33
					c13.23,0,13.68-0.36,13.68,1C272.21,216.59,272.42,217.91,271.22,217.91z"/>
				<path id="XMLID_1220_" class="st8" d="M271.22,225.23c-13.23,0-13.68,0.36-13.68-1c0-1.01-0.2-2.33,1-2.33
					c13.23,0,13.68-0.36,13.68,1C272.21,223.9,272.42,225.23,271.22,225.23z"/>
				<path id="XMLID_1219_" class="st8" d="M271.22,232.54c-13.23,0-13.68,0.36-13.68-1c0-1.01-0.2-2.33,1-2.33
					c13.23,0,13.68-0.36,13.68,1C272.21,231.22,272.42,232.54,271.22,232.54z"/>
				<path id="XMLID_1218_" class="st8" d="M271.22,239.85c-13.23,0-13.68,0.36-13.68-1c0-1.01-0.2-2.33,1-2.33
					c13.23,0,13.68-0.36,13.68,1v1.33C272.21,239.41,271.77,239.85,271.22,239.85z"/>
				<path id="XMLID_1217_" class="st8" d="M271.22,247.17c-13.23,0-13.68,0.36-13.68-1c0-1.01-0.2-2.33,1-2.33
					c13.23,0,13.68-0.36,13.68,1C272.21,245.84,272.42,247.17,271.22,247.17z"/>
				<path id="XMLID_1216_" class="st8" d="M271.22,254.48c-13.23,0-13.68,0.36-13.68-1c0-1.01-0.2-2.33,1-2.33
					c13.23,0,13.68-0.36,13.68,1C272.21,253.16,272.42,254.48,271.22,254.48z"/>
				<path id="XMLID_1215_" class="st8" d="M335.92,217.91c-13.23,0-13.68,0.36-13.68-1c0-1.01-0.2-2.33,1-2.33
					c13.23,0,13.68-0.36,13.68,1C336.92,216.59,337.12,217.91,335.92,217.91z"/>
				<path id="XMLID_1214_" class="st8" d="M335.92,232.54c-13.23,0-13.68,0.36-13.68-1c0-1.01-0.2-2.33,1-2.33
					c13.23,0,13.68-0.36,13.68,1C336.92,231.22,337.12,232.54,335.92,232.54z"/>
				<path id="XMLID_1213_" class="st8" d="M335.92,247.17c-13.23,0-13.68,0.36-13.68-1c0-1.01-0.2-2.33,1-2.33
					c13.23,0,13.68-0.36,13.68,1C336.92,245.84,337.12,247.17,335.92,247.17z"/>
				<path id="XMLID_1229_" class="st10" d="M303.7,217.95h-12.69c-0.55,0-1-0.45-1-1v-1.33c0-0.55,0.45-1,1-1h12.69
					c0.55,0,1,0.45,1,1v1.33C304.7,217.51,304.25,217.95,303.7,217.95z"/>
				<path id="XMLID_1228_" class="st10" d="M303.7,232.58c-13.23,0-13.68,0.36-13.68-1c0-1.01-0.2-2.33,1-2.33h12.69
					c0.55,0,1,0.45,1,1v1.33C304.7,232.13,304.25,232.58,303.7,232.58z"/>
				<path id="XMLID_1227_" class="st10" d="M303.7,247.2c-13.23,0-13.68,0.36-13.68-1c0-1.01-0.2-2.33,1-2.33
					c13.23,0,13.68-0.36,13.68,1C304.7,245.88,304.9,247.2,303.7,247.2z"/>
			</g>
		</g>
		<g id="XMLID_1185_">
			<g id="XMLID_1203_">
				<g id="XMLID_1210_">
					<path class="st4" d="M377.9,221.65c-114.81,0-112.07,1.6-112.07-4.18v-63.72c0-2.31,1.87-4.18,4.18-4.18
						c114.81,0,112.07-1.6,112.07,4.18v63.72C382.08,219.78,380.21,221.65,377.9,221.65z"/>
					<path class="st5" d="M294.32,222.38c-21.77,0-26.72-0.35-28.34-1.99c-0.7-0.71-0.69-1.59-0.68-2.53l0-0.39v-63.72
						c0-2.6,2.11-4.71,4.71-4.71c25.02,0,44.17-0.07,59.56-0.13c42.59-0.17,50.26-0.2,52.36,1.92c0.7,0.71,0.69,1.59,0.68,2.53
						l0,0.39v63.72c0,2.59-2.11,4.71-4.71,4.71c-25.02,0-44.17,0.07-59.56,0.14C308.64,222.35,300.75,222.38,294.32,222.38z
						 M353.16,149.89c-6.39,0-14.16,0.03-23.58,0.07c-15.39,0.06-34.54,0.13-59.56,0.13c-2.01,0-3.65,1.64-3.65,3.65l0,64.12
						c-0.01,0.91,0,1.4,0.37,1.78c1.79,1.8,12.34,1.76,51.61,1.61c15.39-0.06,34.54-0.14,59.57-0.14c2.01,0,3.65-1.64,3.65-3.65
						l0-64.12c0.01-0.91,0-1.4-0.37-1.78C379.83,150.19,373.4,149.89,353.16,149.89z"/>
				</g>
				<g id="XMLID_1209_">
					<path class="st6" d="M382.08,153.15H265.83c0-1.98,1.6-3.58,3.58-3.58C385.92,149.56,382.08,148.21,382.08,153.15z"/>
					<path class="st6" d="M382.61,153.67h-117.3v-0.53c0-2.27,1.84-4.11,4.11-4.11c25.27,0,44.58-0.06,60.1-0.11
						c42.98-0.14,50.72-0.16,52.56,1.72c0.58,0.6,0.57,1.31,0.55,2.06c0,0.14-0.01,0.29-0.01,0.44V153.67z M266.41,152.62h115.16
						c0.02-0.63,0.01-0.98-0.25-1.24c-1.53-1.56-11.18-1.53-51.8-1.4c-15.52,0.05-34.83,0.11-60.1,0.11
						C267.91,150.09,266.66,151.19,266.41,152.62z"/>
				</g>
				<g id="XMLID_1204_">
					<path id="XMLID_1208_" class="st7" d="M377.03,152.32c1.19,0,1.92,0.17,1.92-0.4c0-0.73,0.17-1.54-0.4-1.54
						c-1.19,0-1.92-0.17-1.92,0.4C376.64,151.52,376.47,152.32,377.03,152.32z"/>
					<g id="XMLID_1205_">
						<g id="XMLID_1207_">
							<path class="st4" d="M377.12,152.18c-0.08,0-0.15-0.03-0.2-0.09c-0.09-0.11-0.08-0.28,0.03-0.37l1.35-1.13
								c0.11-0.09,0.28-0.08,0.37,0.03c0.09,0.11,0.08,0.28-0.03,0.37l-1.35,1.13C377.24,152.16,377.18,152.18,377.12,152.18z"/>
						</g>
						<g id="XMLID_1206_">
							<path class="st4" d="M378.47,152.18c-0.06,0-0.12-0.02-0.17-0.06l-1.35-1.13c-0.11-0.09-0.13-0.26-0.03-0.37
								c0.09-0.11,0.26-0.13,0.37-0.03l1.35,1.13c0.11,0.09,0.13,0.26,0.03,0.37C378.62,152.15,378.55,152.18,378.47,152.18z"/>
						</g>
					</g>
				</g>
				<g id="XMLID_1186_">
					<g id="XMLID_1367_">
						<g id="XMLID_1370_">
							<path class="st5" d="M285.54,159.08h-10.19c-0.13,0-0.23-0.11-0.23-0.23c0-0.13,0.11-0.23,0.23-0.23h10.19
								c0.13,0,0.23,0.11,0.23,0.23C285.77,158.97,285.67,159.08,285.54,159.08z"/>
						</g>
						<g id="XMLID_1369_">
							<path class="st5" d="M285.54,216.02h-10.19c-0.13,0-0.23-0.11-0.23-0.23s0.11-0.23,0.23-0.23h10.19
								c0.13,0,0.23,0.11,0.23,0.23S285.67,216.02,285.54,216.02z"/>
						</g>
						<g id="XMLID_1368_">
							<path class="st5" d="M275.35,216.02c-0.13,0-0.23-0.11-0.23-0.23v-56.94c0-0.13,0.11-0.23,0.23-0.23
								c0.13,0,0.23,0.11,0.23,0.23v56.94C275.59,215.92,275.48,216.02,275.35,216.02z"/>
						</g>
					</g>
					<g id="XMLID_1262_">
						<g id="XMLID_1362_">
							<path class="st5" d="M285.18,171.22h-5.84c-0.13,0-0.23-0.11-0.23-0.23c0-0.13,0.11-0.23,0.23-0.23h5.84
								c0.13,0,0.23,0.11,0.23,0.23C285.42,171.11,285.31,171.22,285.18,171.22z"/>
						</g>
						<g id="XMLID_1361_">
							<path class="st5" d="M285.18,203.88h-5.84c-0.13,0-0.23-0.11-0.23-0.23c0-0.13,0.11-0.23,0.23-0.23h5.84
								c0.13,0,0.23,0.11,0.23,0.23C285.42,203.78,285.31,203.88,285.18,203.88z"/>
						</g>
						<g id="XMLID_1263_">
							<path class="st5" d="M279.34,203.88c-0.13,0-0.23-0.11-0.23-0.23v-32.67c0-0.13,0.11-0.23,0.23-0.23
								c0.13,0,0.23,0.11,0.23,0.23v32.67C279.57,203.78,279.47,203.88,279.34,203.88z"/>
						</g>
					</g>
					<g id="XMLID_1256_">
						<path class="st5" d="M287.91,179.83h-8.57c-0.13,0-0.23-0.11-0.23-0.23c0-0.13,0.11-0.23,0.23-0.23h8.57
							c0.13,0,0.23,0.11,0.23,0.23C288.14,179.72,288.04,179.83,287.91,179.83z"/>
					</g>
					<path id="XMLID_1201_" class="st8" d="M297.23,160.72h-19.07c-0.31,0-0.56-0.25-0.56-0.56v-2.62c0-0.31,0.25-0.56,0.56-0.56
						c20.2,0,19.63-0.24,19.63,0.56v2.62C297.79,160.47,297.54,160.72,297.23,160.72z"/>
					<path id="XMLID_1199_" class="st10" d="M287.6,172.85h-5.31c-0.31,0-0.56-0.25-0.56-0.56v-2.62c0-0.31,0.25-0.56,0.56-0.56
						h5.31c0.31,0,0.56,0.25,0.56,0.56v2.62C288.16,172.6,287.91,172.85,287.6,172.85z"/>
					<path id="XMLID_1193_" class="st8" d="M288.41,217.66h-8.97c-0.31,0-0.56-0.25-0.56-0.56v-2.62c0-0.31,0.25-0.56,0.56-0.56
						h8.97c0.31,0,0.56,0.25,0.56,0.56v2.62C288.97,217.41,288.72,217.66,288.41,217.66z"/>
					<g id="XMLID_1200_">
						<path class="st5" d="M339.33,179.83H315.6c-0.13,0-0.23-0.11-0.23-0.23c0-0.13,0.11-0.23,0.23-0.23h23.74
							c0.13,0,0.23,0.11,0.23,0.23C339.57,179.72,339.46,179.83,339.33,179.83z"/>
					</g>
					<path id="XMLID_1192_" class="st9" d="M336.37,160.72c-36.98,0-35.21,0.26-35.21-0.56c0-2.46-0.17-3.18,0.56-3.18
						c36.98,0,35.21-0.26,35.21,0.56C336.94,159.99,337.11,160.72,336.37,160.72z"/>
					<path id="XMLID_1191_" class="st8" d="M310.69,205.52h-27.77c-0.28,0-0.5-0.23-0.5-0.5v-2.74c0-0.28,0.23-0.5,0.5-0.5h27.77
						c0.28,0,0.5,0.23,0.5,0.5v2.74C311.19,205.3,310.97,205.52,310.69,205.52z"/>
					<path id="XMLID_1190_" class="st8" d="M316.94,181.47h-34.65c-0.31,0-0.56-0.25-0.56-0.56v-2.62c0-0.31,0.25-0.56,0.56-0.56
						h34.65c0.31,0,0.56,0.25,0.56,0.56v2.62C317.5,181.22,317.25,181.47,316.94,181.47z"/>
					<g id="XMLID_1261_">
						<path class="st5" d="M337.26,204.94h-10.52c-0.13,0-0.23-0.11-0.23-0.23s0.11-0.23,0.23-0.23h10.52
							c0.13,0,0.23,0.11,0.23,0.23S337.39,204.94,337.26,204.94z"/>
					</g>
					<g id="XMLID_1363_">
						<path class="st5" d="M337.26,196.61h-10.52c-0.13,0-0.23-0.11-0.23-0.23s0.11-0.23,0.23-0.23h10.52
							c0.13,0,0.23,0.11,0.23,0.23S337.39,196.61,337.26,196.61z"/>
					</g>
					<g id="XMLID_1364_">
						<path class="st5" d="M337.26,188.29h-10.52c-0.13,0-0.23-0.11-0.23-0.23c0-0.13,0.11-0.23,0.23-0.23h10.52
							c0.13,0,0.23,0.11,0.23,0.23C337.49,188.18,337.39,188.29,337.26,188.29z"/>
					</g>
					<path id="XMLID_1189_" class="st9" d="M330.79,181.6c-8.11,0-8.44,0.21-8.44-0.34c0-2.61-0.21-3.41,0.34-3.41
						c8.11,0,8.44-0.21,8.44,0.34C331.12,180.8,331.34,181.6,330.79,181.6z"/>
					<path id="XMLID_1372_" class="st9" d="M308.19,192.44h-18.47c-0.28,0-0.5-0.22-0.5-0.5v-2.74c0-0.28,0.22-0.5,0.5-0.5h18.47
						c0.28,0,0.5,0.22,0.5,0.5v2.74C308.69,192.21,308.47,192.44,308.19,192.44z"/>
					<path id="XMLID_1188_" class="st10" d="M341.31,181.6c-8.11,0-8.44,0.21-8.44-0.34c0-2.61-0.21-3.41,0.34-3.41
						c8.11,0,8.44-0.21,8.44,0.34C341.64,180.8,341.86,181.6,341.31,181.6z"/>
					<path id="XMLID_1194_" class="st9" d="M330.79,189.93c-8.11,0-8.44,0.21-8.44-0.34c0-2.61-0.21-3.41,0.34-3.41
						c8.11,0,8.44-0.21,8.44,0.34C331.12,189.13,331.34,189.93,330.79,189.93z"/>
					<path id="XMLID_1187_" class="st10" d="M341.31,189.93c-8.11,0-8.44,0.21-8.44-0.34c0-2.61-0.21-3.41,0.34-3.41
						c8.11,0,8.44-0.21,8.44,0.34v3.07C341.64,189.77,341.49,189.93,341.31,189.93z"/>
					<path id="XMLID_1196_" class="st9" d="M330.79,198.25c-8.11,0-8.44,0.21-8.44-0.34c0-2.61-0.21-3.41,0.34-3.41
						c8.11,0,8.44-0.21,8.44,0.34C331.12,197.45,331.34,198.25,330.79,198.25z"/>
					<path id="XMLID_1195_" class="st10" d="M341.31,198.25c-8.11,0-8.44,0.21-8.44-0.34c0-2.61-0.21-3.41,0.34-3.41
						c8.11,0,8.44-0.21,8.44,0.34C341.64,197.45,341.86,198.25,341.31,198.25z"/>
					<path id="XMLID_1198_" class="st9" d="M330.79,206.58c-8.11,0-8.44,0.21-8.44-0.34c0-2.61-0.21-3.41,0.34-3.41
						c8.11,0,8.44-0.21,8.44,0.34C331.12,205.78,331.34,206.58,330.79,206.58z"/>
					<path id="XMLID_1197_" class="st10" d="M341.31,206.58c-8.11,0-8.44,0.21-8.44-0.34c0-2.61-0.21-3.41,0.34-3.41
						c8.11,0,8.44-0.21,8.44,0.34C341.64,205.78,341.86,206.58,341.31,206.58z"/>
					<g id="XMLID_1202_">
						<path class="st5" d="M332,204.94c-0.13,0-0.23-0.11-0.23-0.23v-25.11c0-0.13,0.11-0.23,0.23-0.23c0.13,0,0.23,0.11,0.23,0.23
							v25.11C332.23,204.83,332.13,204.94,332,204.94z"/>
					</g>
					<path id="XMLID_1365_" class="st10" d="M346.46,160.72c-5.42,0-5.88,0.19-5.88-0.56c0-2.46-0.17-3.18,0.56-3.18
						c5.42,0,5.88-0.19,5.88,0.56C347.02,159.99,347.19,160.72,346.46,160.72z"/>
					<path id="XMLID_1366_" class="st10" d="M357.5,160.72c-5.42,0-5.88,0.19-5.88-0.56c0-2.46-0.17-3.18,0.56-3.18
						c5.42,0,5.88-0.19,5.88,0.56C358.06,159.99,358.23,160.72,357.5,160.72z"/>
					<path id="XMLID_1371_" class="st10" d="M368.54,160.72c-5.42,0-5.88,0.19-5.88-0.56c0-2.46-0.17-3.18,0.56-3.18
						c5.42,0,5.87-0.19,5.87,0.56C369.1,159.99,369.27,160.72,368.54,160.72z"/>
				</g>
			</g>
		</g>
	</g>
	<g id="XMLID_550_">
		<g id="XMLID_848_">
			<circle class="st4" cx="104.08" cy="188.39" r="19.99"/>
			<path class="st14" d="M104.08,209.38c-11.57,0-20.99-9.42-20.99-20.99s9.42-20.99,20.99-20.99s20.99,9.42,20.99,20.99
				S115.65,209.38,104.08,209.38z M104.08,169.4c-10.47,0-18.99,8.52-18.99,18.99s8.52,18.99,18.99,18.99s18.99-8.52,18.99-18.99
				S114.55,169.4,104.08,169.4z"/>
		</g>
		<g id="XMLID_551_" class="st15">
			<path id="XMLID_557_" class="st16" d="M103.68,170.73c1.48-0.48,2.2,1.77,0.72,2.24C102.92,173.44,102.2,171.2,103.68,170.73z"/>
			<path id="XMLID_846_" class="st16" d="M112.51,172.86c1.52,0.33,1.02,2.63-0.5,2.3C110.49,174.83,110.99,172.53,112.51,172.86z"
				/>
			<path id="XMLID_845_" class="st16" d="M119.59,180.11c1.09,1.12-0.6,2.76-1.69,1.64C116.81,180.64,118.5,179,119.59,180.11z"/>
			<path id="XMLID_844_" class="st16" d="M119.36,188.34c0.02-1.56,2.37-1.53,2.36,0.02C121.7,189.92,119.34,189.89,119.36,188.34z"
				/>
			<path id="XMLID_556_" class="st16" d="M95.58,172.86c-1.52,0.33-1.02,2.63,0.5,2.3C97.6,174.83,97.1,172.53,95.58,172.86z"/>
			<path id="XMLID_842_" class="st16" d="M88.5,180.11c-1.09,1.12,0.6,2.76,1.69,1.64C91.27,180.64,89.59,179,88.5,180.11z"/>
			<path id="XMLID_841_" class="st16" d="M88.73,188.34c-0.02-1.56-2.37-1.53-2.36,0.02C86.39,189.92,88.75,189.89,88.73,188.34z"/>
			<path id="XMLID_554_" class="st16" d="M103.69,205.97c1.48,0.48,2.2-1.77,0.72-2.24C102.93,203.25,102.2,205.49,103.69,205.97z"
				/>
			<path id="XMLID_553_" class="st16" d="M112.51,203.83c1.52-0.33,1.02-2.63-0.5-2.3C110.5,201.86,110.99,204.16,112.51,203.83z"/>
			<path id="XMLID_838_" class="st16" d="M119.59,196.58c1.09-1.12-0.6-2.76-1.69-1.64C116.82,196.05,118.5,197.69,119.59,196.58z"
				/>
			<path id="XMLID_552_" class="st16" d="M95.58,203.83c-1.52-0.33-1.02-2.63,0.5-2.3C97.6,201.86,97.1,204.16,95.58,203.83z"/>
			<path id="XMLID_836_" class="st16" d="M88.5,196.58c-1.09-1.12,0.6-2.76,1.69-1.64C91.28,196.05,89.59,197.69,88.5,196.58z"/>
		</g>
		<g id="XMLID_834_">
			<path class="st16" d="M104.03,189.38c-0.09,0-0.18-0.02-0.26-0.07c-0.15-0.09-0.24-0.25-0.24-0.43v-13.03
				c0-0.28,0.22-0.5,0.5-0.5c0.28,0,0.5,0.22,0.5,0.5v12.22l11.12-5.66c0.25-0.13,0.55-0.03,0.67,0.22
				c0.13,0.25,0.03,0.55-0.22,0.67l-11.84,6.03C104.19,189.36,104.11,189.38,104.03,189.38z"/>
		</g>
	</g>
	<g id="XMLID_559_">
		<defs>
			<rect id="XMLID_511_" x="77.6" y="205.13" width="224.22" height="162.82"/>
		</defs>
		<clipPath id="XMLID_00000088097205209460750020000008576417601792438408_">
			<use xlink:href="#XMLID_511_"  style="overflow:visible;"/>
		</clipPath>
		<g id="XMLID_797_" style="clip-path:url(#XMLID_00000088097205209460750020000008576417601792438408_);">
			<g id="XMLID_819_">
				<polygon id="XMLID_549_" class="st18" points="209.46,295.82 180.17,295.82 188.16,278.5 201.47,278.5 				"/>
				<path id="XMLID_548_" class="st18" d="M240.24,280.69c-96.76,0-92.84,0.85-92.84-1.9c0-65.05-0.81-62.79,1.9-62.79
					c96.76,0,92.84-0.85,92.84,1.9C242.14,282.95,242.95,280.69,240.24,280.69z"/>
				<path id="XMLID_830_" class="st19" d="M238.12,268.22c-91.96,0-88.61,0.87-88.61-1.9c0-49.13-0.81-48.43,1.9-48.43
					c91.96,0,88.61-0.87,88.61,1.9C240.02,268.92,240.83,268.22,238.12,268.22z"/>
				<path id="XMLID_822_" class="st20" d="M194.64,277.22c-3.48,0-3.48-5.26,0-5.26C198.11,271.95,198.12,277.22,194.64,277.22z"/>
				<g id="XMLID_547_">
					<g id="XMLID_1150_">
						<g id="XMLID_1157_">
							<path class="st4" d="M227,264.59c-68.38,0-66.96,1.02-66.96-2.5c0-39.89-0.94-40.57,2.5-40.57c68.38,0,66.96-1.02,66.96,2.5
								C229.5,263.91,230.44,264.59,227,264.59z"/>
							<path class="st5" d="M176.24,265.04c-12.31,0-15.13-0.22-16.1-1.19c-0.43-0.43-0.42-0.98-0.42-1.56l0-0.21
								c0-8.55-0.04-15.25-0.08-20.63c-0.1-15-0.12-18.56,1.06-19.75c0.47-0.47,1.08-0.51,1.83-0.51c15.45,0,27.11-0.05,36.48-0.09
								c24.67-0.11,29.12-0.13,30.38,1.14c0.43,0.43,0.42,0.98,0.42,1.56l0,0.21c0,8.55,0.04,15.25,0.08,20.63
								c0.1,15,0.12,18.56-1.06,19.75c-0.47,0.47-1.08,0.51-1.83,0.51c-15.45,0-27.11,0.05-36.48,0.09
								C184.72,265.02,180.03,265.04,176.24,265.04z M213.04,221.7c-3.77,0-8.39,0.02-14.02,0.05c-9.37,0.04-21.03,0.09-36.48,0.09
								c-0.64,0-1.09,0.02-1.38,0.32c-1,1-0.97,5.24-0.88,19.3c0.03,5.38,0.08,12.08,0.08,20.63l0,0.21c-0.01,0.57,0,0.87,0.24,1.11
								c1.08,1.08,7.19,1.05,29.93,0.95c9.37-0.04,21.03-0.09,36.48-0.09c0.64,0,1.09-0.02,1.38-0.32c1-1,0.97-5.24,0.88-19.3
								c-0.03-5.38-0.08-12.08-0.08-20.63l0-0.21c0-0.57,0-0.87-0.24-1.11C228.14,221.89,224.48,221.7,213.04,221.7z"/>
						</g>
						<g id="XMLID_1156_">
							<path class="st6" d="M229.5,223.66h-69.46c0-1.18,0.96-2.14,2.14-2.14C231.68,221.52,229.5,220.61,229.5,223.66z"/>
							<path class="st6" d="M229.81,223.98h-70.09v-0.31c0-1.35,1.1-2.45,2.45-2.45c16.13,0,28.61-0.05,37.73-0.09
								c24.12-0.1,28.47-0.11,29.57,1c0.36,0.37,0.35,0.81,0.34,1.28c0,0.08,0,0.17,0,0.26V223.98z M160.38,223.35h68.8
								c0.01-0.4,0-0.62-0.16-0.78c-0.91-0.93-6.88-0.9-29.11-0.81c-9.12,0.04-21.6,0.09-37.73,0.09
								C161.28,221.84,160.53,222.49,160.38,223.35z"/>
						</g>
						<g id="XMLID_1151_">
							<path id="XMLID_1155_" class="st7" d="M226.48,223.17h0.91c0.33,0,0.43-1.15,0-1.15h-0.91c-0.41,0-0.24,1.22-0.24,0.92
								C226.24,223.06,226.35,223.17,226.48,223.17z"/>
							<g id="XMLID_1152_">
								<g id="XMLID_1154_">
									<path class="st4" d="M226.53,223.09c-0.04,0-0.09-0.02-0.12-0.06c-0.06-0.07-0.05-0.17,0.02-0.22l0.81-0.67
										c0.07-0.05,0.17-0.05,0.22,0.02c0.06,0.07,0.05,0.17-0.02,0.22l-0.81,0.67C226.6,223.07,226.57,223.09,226.53,223.09z"/>
								</g>
								<g id="XMLID_1153_">
									<path class="st4" d="M227.34,223.09c-0.04,0-0.07-0.01-0.1-0.04l-0.81-0.67c-0.07-0.06-0.08-0.15-0.02-0.22
										c0.06-0.07,0.16-0.08,0.22-0.02l0.81,0.67c0.07,0.06,0.08,0.15,0.02,0.22C227.43,223.07,227.38,223.09,227.34,223.09z"/>
								</g>
							</g>
						</g>
					</g>
					<g id="XMLID_562_">
						<path id="XMLID_1149_" class="st8" d="M187.2,233.24c-18.32,0-17.78,0.2-17.78-0.44c0-1.5-0.13-2.07,0.44-2.07
							c18.32,0,17.78-0.2,17.78,0.44C187.64,232.66,187.77,233.24,187.2,233.24z"/>
						<path id="XMLID_1148_" class="st8" d="M200.89,255.37c-32.87,0-31.47,0.27-31.47-0.58c0-1.16-0.15-1.93,0.58-1.93
							c32.87,0,31.47-0.27,31.47,0.58C201.47,254.59,201.62,255.37,200.89,255.37z"/>
						<g id="XMLID_827_">
							<path id="XMLID_1147_" class="st10" d="M167.11,233.27c-1.4,0-2.06,0.14-2.06-0.48c0-1.4-0.14-2.06,0.48-2.06
								c1.4,0,2.06-0.14,2.06,0.48C167.59,232.61,167.73,233.27,167.11,233.27z"/>
							<path id="XMLID_1146_" class="st10" d="M167.11,238.85c-1.4,0-2.06,0.14-2.06-0.48c0-1.4-0.14-2.06,0.48-2.06
								c1.4,0,2.06-0.14,2.06,0.48C167.59,238.2,167.73,238.85,167.11,238.85z"/>
							<path id="XMLID_1138_" class="st10" d="M167.11,244.8c-1.4,0-2.06,0.14-2.06-0.48c0-1.4-0.14-2.06,0.48-2.06
								c1.4,0,2.06-0.14,2.06,0.48C167.59,244.15,167.73,244.8,167.11,244.8z"/>
							<path id="XMLID_1137_" class="st10" d="M167.11,249.68c-1.4,0-2.06,0.14-2.06-0.48c0-1.4-0.14-2.06,0.48-2.06
								c1.4,0,2.06-0.14,2.06,0.48C167.59,249.02,167.73,249.68,167.11,249.68z"/>
							<path id="XMLID_828_" class="st10" d="M167.11,255.38c-1.4,0-2.06,0.14-2.06-0.48c0-1.4-0.14-2.06,0.48-2.06
								c1.4,0,2.06-0.14,2.06,0.48C167.59,254.73,167.73,255.38,167.11,255.38z"/>
						</g>
						<path id="XMLID_826_" class="st13" d="M223.72,233.28c-34.85,0-33.73,0.35-33.73-0.76c0-0.8-0.16-1.8,0.76-1.8
							c34.85,0,33.73-0.35,33.73,0.76C224.49,232.28,224.64,233.28,223.72,233.28z"/>
						<path id="XMLID_825_" class="st8" d="M187.2,238.83c-18.32,0-17.78,0.2-17.78-0.44c0-1.5-0.13-2.07,0.44-2.07
							c18.32,0,17.78-0.2,17.78,0.44C187.64,238.25,187.77,238.83,187.2,238.83z"/>
						<path id="XMLID_824_" class="st13" d="M220.29,238.87c-31.34,0-30.29,0.32-30.29-0.72c0-0.88-0.16-1.84,0.72-1.84
							c31.34,0,30.29-0.32,30.29,0.72C221.01,237.91,221.17,238.87,220.29,238.87z"/>
						<path id="XMLID_823_" class="st8" d="M187.2,244.78c-18.32,0-17.78,0.2-17.78-0.44c0-1.5-0.13-2.07,0.44-2.07
							c18.32,0,17.78-0.2,17.78,0.44C187.64,244.2,187.77,244.78,187.2,244.78z"/>
						<path id="XMLID_821_" class="st13" d="M214.55,244.82c-25.28,0-24.56,0.28-24.56-0.65c0-0.99-0.17-1.92,0.65-1.92
							c25.28,0,24.56-0.28,24.56,0.65C215.21,243.9,215.38,244.82,214.55,244.82z"/>
						<path id="XMLID_820_" class="st13" d="M214.55,250.96c-25.28,0-24.56,0.28-24.56-0.65c0-0.99-0.17-1.92,0.65-1.92
							c25.28,0,24.56-0.28,24.56,0.65C215.21,250.04,215.38,250.96,214.55,250.96z"/>
						<path id="XMLID_705_" class="st8" d="M187.2,250.72c-18.32,0-17.78,0.2-17.78-0.44c0-1.5-0.13-2.07,0.44-2.07
							c18.32,0,17.78-0.2,17.78,0.44C187.64,250.15,187.77,250.72,187.2,250.72z"/>
						<path id="XMLID_703_" class="st13" d="M223.87,255.4c-21.88,0-21.27,0.26-21.27-0.61c0-1.03-0.18-1.96,0.61-1.96
							c21.88,0,21.27-0.26,21.27,0.61C224.48,254.46,224.66,255.4,223.87,255.4z"/>
					</g>
				</g>
			</g>
			<g id="XMLID_798_">
				<path id="XMLID_808_" class="st21" d="M292.26,316.1c0-21.07,0.18-20.22-0.41-20.22c-187.37,0-177.86-0.21-177.86,0.41v19.81
					C113.99,316.57,292.26,316.88,292.26,316.1z"/>
				<g id="XMLID_805_">
					<g>
						<path id="XMLID_00000078765733188488961020000005588586068404165248_" class="st22" d="M280.83,312.31
							c-70.71,0-68,0.66-68-1.52c0-9.74-0.48-11.21,1.52-11.21c70.71,0,68-0.66,68,1.52C282.35,310.83,282.83,312.31,280.83,312.31z
							"/>
						<g id="XMLID_00000106850709902725039770000002791553873862685828_">
							<path class="st23" d="M247.59,308.53c-3.53,0-3.54-5.35,0-5.35C251.12,303.18,251.12,308.53,247.59,308.53z"/>
						</g>
					</g>
				</g>
				<g id="XMLID_802_">
					<g>
						<path id="XMLID_00000023254078817584254940000009444105987996717480_" class="st22" d="M205.45,312.31
							c-70.71,0-68,0.66-68-1.52c0-9.74-0.48-11.21,1.52-11.21c70.71,0,68-0.66,68,1.52C206.97,310.83,207.45,312.31,205.45,312.31z
							"/>
						<g id="XMLID_00000027596194519454348600000000626045816699654817_">
							<path class="st23" d="M172.2,308.53c-3.53,0-3.54-5.35,0-5.35C175.74,303.18,175.74,308.53,172.2,308.53z"/>
						</g>
					</g>
				</g>
				<rect id="XMLID_801_" x="143.15" y="316.51" class="st22" width="126.31" height="5.6"/>
				<path id="XMLID_800_" class="st21" d="M273.28,317.66l14.78,81.34c0.5,2.73-2.87,2.5-3.32,0.82
					c-22.93-85.82-23.14-83.39-20.43-83.37C272.09,316.5,273.01,316.14,273.28,317.66z"/>
				<path id="XMLID_799_" class="st21" d="M127.66,317.66c-0.06,0.34-14.84,81.43-14.79,81.78c0.42,2.83,3.03,1.49,3.33,0.36
					c22.99-86.05,23.08-83.39,20.42-83.36C128.84,316.5,127.94,316.15,127.66,317.66z"/>
				<path id="XMLID_1_" class="st21" d="M137.49,333.16c0.11,0.33,25.15,78.86,25.36,79.14c1.7,2.31,3.37-0.11,3.11-1.24
					c-20.12-86.76-18.8-84.45-21.13-83.19C137.98,331.59,137.02,331.7,137.49,333.16z"/>
			</g>
		</g>
		<g id="XMLID_796_" style="clip-path:url(#XMLID_00000088097205209460750020000008576417601792438408_);">
			<path class="st24" d="M135.12,307.67l-0.14-0.48c8.51-2.59,7.72-7.09,6.73-12.78c-0.93-5.31-2.09-11.92,4.46-18.65l0.36,0.35
				c-6.37,6.54-5.28,12.75-4.32,18.22C143.19,300.02,144.05,304.95,135.12,307.67z"/>
		</g>
		<g id="XMLID_725_" style="clip-path:url(#XMLID_00000088097205209460750020000008576417601792438408_);">
			<g id="XMLID_759_">
				<path id="XMLID_771_" class="st25" d="M204.91,388.92c1.66,1.22-6.46,9.5-13.47,10.61l-1.56-1.95
					c-0.87-7.16-2.32-4.39,6.53-10.97L204.91,388.92z"/>
				<path id="XMLID_770_" class="st26" d="M216.37,397.58c-7.13,3.99-12.99,12.99-16.73,11.38c-3.74-1.62-5.94-12.91-7.98-15.11
					c0.02-0.02,3.13-3.46,3.14-3.48c0.91-0.13-0.02,0,5.44-0.76c0.65,1,1.21,1.77,1.75,2.35c6.04,6.6,21.65-5.87,23.46-3.63
					C227.56,390.94,219.3,395.93,216.37,397.58z"/>
				<path id="XMLID_769_" class="st27" d="M222.68,393.42c-1.56,1.28-3.68,2.68-6.31,4.16c-7.13,3.99-12.99,12.99-16.73,11.38
					c-3.74-1.62-5.94-12.91-7.98-15.11c0.02-0.02,3.83-3.57,3.85-3.58l4.73-0.66c0.65,1,1.21,1.77,1.75,2.35
					c-0.48,2.3-2.18,7.41-1.62,9.57c1.66,6.42,10.5-3.27,17.19-5.85C219.13,395.06,221.25,394.09,222.68,393.42z"/>
				<g id="XMLID_768_">
					<path class="st28" d="M204.91,388.92c-1.7-0.08-9.85,2.21-15.03,8.66c0,0-17.91-14.86-26.23-37.78l15.53-9.17
						c0,0,13.16,22.58,17.23,28.61C200.49,385.27,204.91,388.92,204.91,388.92z"/>
					<path class="st29" d="M189.92,397.98l-0.22-0.18c-0.18-0.15-18.07-15.17-26.32-37.9l-0.08-0.22l15.98-9.43l0.14,0.25
						c0.13,0.23,13.2,22.64,17.22,28.59c4,5.92,8.39,9.58,8.43,9.62l0.66,0.54l-0.85-0.04c-1.35-0.07-9.49,1.95-14.79,8.55
						L189.92,397.98z M164,359.93c7.73,21.1,23.79,35.47,25.85,37.25c4.65-5.63,11.65-8.13,14.36-8.49
						c-1.3-1.16-4.78-4.49-8.02-9.28c-3.8-5.63-15.66-25.9-17.1-28.38L164,359.93z"/>
				</g>
				<path id="XMLID_767_" class="st25" d="M172.99,394.86c-0.74,3.05,15.15,8.56,20.03,4.75l-1.68-11.8l-14.1,0.35L172.99,394.86z"
					/>
				<path id="XMLID_766_" class="st26" d="M200.58,416.12c-9.68-0.03-7.36-2.93-16.94-3.63c-9.58-0.7-12.57-2.26-12.35-5.6
					c0.23-3.35,5.94-12.05,6.56-15.47c9.06,3.29,6.66,2.42,9.46,3.44c-1.23,6.64-0.63,9.86,6.68,13.05
					C202.39,411.56,209.76,416.14,200.58,416.12z"/>
				<path id="XMLID_765_" class="st27" d="M204.44,415.51c-0.57,0.39-1.79,0.61-3.86,0.61c-9.68-0.03-7.36-2.93-16.94-3.63
					c-20.11-1.47-10.73-7.36-6.18-19.72c9.03,1.53,7.08,1.08,9.84,2.08c-0.32,1.76-0.52,3.28-0.5,4.63
					c-10.93,0.74-14.96,8.77-2.01,10.96c4.75,0.81,11.42,4.42,14.09,4.71C200.81,415.36,203.24,415.47,204.44,415.51z"/>
				<g id="XMLID_764_">
					<path class="st30" d="M196.59,369.31c-3.06,8.23-4.16,24.02-3.57,30.3c-1.89-2.84-8.47-7.45-20.03-4.75l7.13-45.84
						c-19.75-2.41-14.42-1.76-25.04-3.06c-3.05-4.4-11.88-17.15-14.94-21.56c11.1-6.54,8.99-5.3,11.8-6.96
						c4.24,3.14,39.19,8.83,48.65,14C209.79,336.5,199.64,361.08,196.59,369.31z"/>
					<path class="st29" d="M193.41,400.71l-0.62-0.94c-1.84-2.76-8.34-7.29-19.73-4.63l-0.41,0.1l0.06-0.42l7.08-45.55l-24.88-3.04
						l-0.07-0.1l-15.12-21.82l3.9-2.3c5.91-3.48,5.91-3.48,7.24-4.27l1.08-0.64l0.15,0.11c1.91,1.41,10.58,3.45,19.77,5.6
						c11.11,2.61,23.71,5.57,28.84,8.38c8.78,4.81,0.74,26.03-3.12,36.23c-0.28,0.73-0.53,1.39-0.74,1.98
						c-2.96,7.97-4.17,23.56-3.55,30.18L193.41,400.71z M179.66,393.77c6.77,0,11.08,2.72,13.01,4.92
						c-0.44-7.11,0.8-21.79,3.66-29.48c0.22-0.58,0.47-1.25,0.74-1.98c3.51-9.27,11.72-30.96,3.37-35.54
						c-5.07-2.77-17.62-5.72-28.7-8.32c-9.41-2.21-17.57-4.13-19.82-5.59l-0.76,0.45c-1.33,0.79-1.33,0.79-7.24,4.27l-3.38,1.99
						l14.7,21.21l25.2,3.08l-7.11,45.71C175.64,393.98,177.75,393.77,179.66,393.77z"/>
				</g>
				<path id="XMLID_763_" class="st31" d="M183.45,394.17l-0.32,0.11c-2.72-0.42-6.07-0.37-10.14,0.58l7.13-45.84l-16.71-2.04
					c-0.61-0.3-14.41-7.05-23.94-11.72l0.79-16.58l8.81-1.57c5.36,13.78,25.18,25.5,42.24,30.46
					C184.67,371.95,179.74,385.13,183.45,394.17z"/>
				<g id="XMLID_762_">
					<path class="st29" d="M184.87,348.85c-0.06,0-0.11,0-0.17,0c-0.14,0-0.25-0.12-0.25-0.25c0-0.14,0.11-0.25,0.25-0.25
						c2.22,0.05,5.76-0.63,8.19-2.17c0.12-0.07,0.27-0.04,0.34,0.08c0.07,0.12,0.04,0.27-0.08,0.34
						C190.7,348.15,187.18,348.85,184.87,348.85z"/>
				</g>
				<path id="XMLID_761_" class="st14" d="M202.57,404.05c0,0,0.04-0.07,0.12-0.19c0.09-0.11,0.18-0.28,0.29-0.44
					c0.21-0.37,0.41-0.79,0.52-1.27c0.13-0.48,0.2-1.03,0.31-1.46c0.1-0.44,0.24-0.74,0.24-0.74s0.19,0.28,0.33,0.72
					c0.15,0.44,0.25,1.08,0.08,1.74c-0.04,0.16-0.1,0.32-0.18,0.48c-0.08,0.15-0.16,0.3-0.27,0.42c-0.1,0.13-0.21,0.24-0.33,0.33
					c-0.11,0.1-0.24,0.16-0.34,0.22c-0.23,0.12-0.43,0.17-0.56,0.19C202.66,404.05,202.57,404.05,202.57,404.05z"/>
				<path id="XMLID_760_" class="st14" d="M181.07,404.18c0,0,0.01,0.05,0.03,0.15c0.02,0.09,0.03,0.24,0.01,0.4
					c-0.01,0.17-0.07,0.36-0.16,0.55c-0.09,0.19-0.22,0.37-0.38,0.54c-0.16,0.16-0.35,0.29-0.54,0.39
					c-0.19,0.09-0.38,0.15-0.55,0.16c-0.17,0.02-0.31,0.01-0.4-0.01c-0.09-0.02-0.15-0.04-0.15-0.04s0.05-0.03,0.14-0.06
					c0.08-0.04,0.2-0.09,0.33-0.16c0.26-0.14,0.56-0.36,0.82-0.62c0.26-0.26,0.48-0.57,0.62-0.83c0.07-0.13,0.13-0.24,0.17-0.33
					C181.04,404.23,181.07,404.18,181.07,404.18z"/>
			</g>
			<g id="XMLID_750_">
				<path id="XMLID_758_" class="st32" d="M223.46,295.92c2.5-4.16,11.08-6.32,16.13-0.04L223.46,295.92z"/>
				<path id="XMLID_757_" class="st33" d="M213.76,291.93c5.48-3.44,16.94-4.71,20.31-3.37c3.37,1.34,6.05,4.33,4.84,5.22
					c-1.21,0.89-4.97-1.46-7.19-0.57c-6.13,2.45-7.91,5.39-18.46,5.03L213.76,291.93z"/>
				<g id="XMLID_756_">
					<path class="st34" d="M215.66,300.47c-5.66,1.4-27.04,6.65-33.5,7.38c-6.42,0.73-20.37-12.01-25.04-16.55
						c-0.94,2.83-1.95,5.34-3.74,7.89c-2.37,3.39-3.98,11.52-2.85,13.35c0.98,1.46,3.63,3.68,3.95,4.9
						c0.34,1.27-1.78,5.35-11.21,8.06c-11.87-20.36-7.99-13.7-17.32-29.71c19.49-28.67,6.29-9.25,21.64-31.83
						c8.88,0.13,34.22,29.72,36.74,29.27c29.2-5.23,27.68-5.28,28.55-4.31c0.96,1.06,2.67,3.42,3.59,7.42
						C216.92,298.18,217.39,300.04,215.66,300.47z"/>
					<path class="st35" d="M143.14,325.84l-17.52-30.06l0.1-0.15c10.43-15.34,11.5-16.91,12.59-18.52l9.14-13.44l0.15,0
						c5.72,0.08,17.92,11.93,26.82,20.59c4.46,4.34,9.06,8.83,9.86,8.68c6.66-1.19,11.73-2.12,15.58-2.82
						c12.49-2.28,12.5-2.28,13.14-1.51l0.09,0.11c0.95,1.05,2.66,3.39,3.6,7.32l0.08,0.32c0.43,1.82,0.91,3.88-1.06,4.37
						c-6.25,1.55-27.12,6.66-33.54,7.39c-6.77,0.77-21.31-12.81-24.95-16.32c-0.94,2.76-1.94,5.12-3.63,7.54
						c-2.37,3.39-3.87,11.28-2.86,13.02c0.4,0.59,1.08,1.32,1.74,2.03c1.05,1.12,2.05,2.18,2.26,2.98c0.4,1.49-1.92,5.68-11.4,8.41
						L143.14,325.84z M126.3,295.81l17.11,29.37c9.08-2.67,11.1-6.54,10.8-7.66c-0.17-0.66-1.21-1.76-2.13-2.74
						c-0.66-0.7-1.28-1.37-1.7-1.95h-0.14l0-0.21c-1.15-2.11,0.58-10.26,2.9-13.59c1.73-2.49,2.73-4.92,3.7-7.82l0.14-0.43
						l0.32,0.31c8.18,7.97,19.59,17.06,24.81,16.47c6.38-0.72,27.23-5.83,33.47-7.37c1.3-0.32,1.14-1.57,0.67-3.58
						c0,0-0.06-0.22-0.06-0.22c-0.9-3.94-2.59-6.26-3.52-7.29c-0.04-0.04-0.07-0.09-0.11-0.13c-0.42-0.51-0.66-0.47-12.6,1.7
						c-3.86,0.7-8.92,1.63-15.58,2.82c-1.02,0.18-4.08-2.74-10.36-8.83c-8.76-8.51-20.72-20.14-26.28-20.42l-8.96,13.18
						C137.7,279.04,136.63,280.6,126.3,295.81z"/>
				</g>
				<path id="XMLID_755_" class="st36" d="M216.89,300c0,0-27.42,6.88-34.89,7.73c-5.29,0.6-15.62-7.93-21.22-12.98
					c-0.45-0.57-5.58-5.43-6.45-5.1c-2.03,0.76-5.48,9.04-6.49,13.5c-0.78,3.44,0.02,6.73,2.54,9.28c0.98,1.46,3.63,3.68,3.95,4.9
					c0.34,1.27-1.78,5.35-11.21,8.06c-11.38-19.52-9.45-15.77-11.33-20.97c1.08-6.33,3.66-21.53,4.71-27.76
					c6.54-4.36,2.04-1.36,12.99-8.66c3.94,2.42,10.31,14.9,13.88,20.12c3.57,5.22,14,16.04,18.46,16.3c3.94,0.22,28.8-6.62,34.5-8.2
					C216.59,297.34,216.79,298.6,216.89,300z"/>
				<g id="XMLID_754_">
					<path class="st35" d="M181,296.93c-0.04,0-0.07-0.01-0.11-0.02c-0.12-0.06-0.18-0.21-0.12-0.33c0.41-0.85,1.76-2.96,1.99-3.19
						c0.1-0.1,0.25-0.1,0.35,0c0.1,0.1,0.1,0.25,0,0.35c-0.15,0.16-1.47,2.18-1.89,3.05C181.18,296.87,181.09,296.93,181,296.93z"/>
				</g>
				<g id="XMLID_753_">
					<path class="st35" d="M184.22,296.8c-0.11,0-0.2-0.07-0.24-0.17c-0.01-0.02-0.57-1.79-0.87-2.3c-0.07-0.12-0.03-0.27,0.09-0.34
						c0.12-0.07,0.27-0.03,0.34,0.09c0.33,0.56,0.89,2.33,0.91,2.41c0.04,0.13-0.03,0.27-0.16,0.31
						C184.27,296.8,184.24,296.8,184.22,296.8z"/>
				</g>
				<g id="XMLID_752_">
					<path class="st35" d="M157.12,291.55c-0.07,0-0.14-0.03-0.19-0.08c-0.35-0.39-3.41-3.84-3.67-4.23
						c-0.08-0.11-0.05-0.27,0.07-0.35c0.11-0.08,0.27-0.05,0.35,0.07c0.18,0.27,2.27,2.64,3.63,4.17c0.09,0.1,0.08,0.26-0.02,0.35
						C157.23,291.53,157.17,291.55,157.12,291.55z"/>
				</g>
				<g id="XMLID_751_">
					<path class="st35" d="M151.51,314.72c-0.03,0-0.07-0.01-0.1-0.02c-2.4-1.08-6.85-1.76-6.9-1.76c-0.14-0.02-0.23-0.15-0.21-0.28
						c0.02-0.14,0.15-0.23,0.28-0.21c0.19,0.03,4.56,0.7,7.03,1.8c0.13,0.06,0.18,0.2,0.13,0.33
						C151.7,314.67,151.61,314.72,151.51,314.72z"/>
				</g>
			</g>
			<g id="XMLID_741_">
				<path id="XMLID_749_" class="st33" d="M150.98,231.45c0.7,8.72,7.65,9.27,1.27,11.52c0,0,1.02,7.83-5.41,9.8l-6.18-11.68
					l4.39-8.05L150.98,231.45z"/>
				<path id="XMLID_748_" class="st37" d="M152.96,265.36c-1.02,7.47-8.32,9.17-10.48,18.25c-2.16,9.08,4.37,10.01,3.65,18.55
					c-0.72,8.53-8.95,11.12-8.95,11.12c-0.07-0.05-38.84-29.03-38.84-29.12c0.13,0-1.38-3.46,6.69-7.7
					c8.1-4.05-5.41-13.23,1.21-21.58c5.8-7.32,10.91,3.23,14.14-18.38c3.22-21.6,18.29-21.18,23.38-17.49
					c15.03,0.72,12.14,11.95,2.03,23.18C140.1,248.51,153.98,257.89,152.96,265.36z"/>
				<path id="XMLID_747_" class="st38" d="M152.96,265.36c-1.02,7.47-8.32,9.17-10.48,18.25c-2.16,9.08,4.37,10.01,3.65,18.55
					c-0.72,8.53-8.95,11.12-8.95,11.12c-0.01-0.01-0.06-0.04-0.06-0.04l-13.35-30.18c-7.23-14.11,8.19-18.42,14.35-28.78
					c4.24-7.13,1.7-13.92,3.14-18.08c1.44-4.16,7.3-0.34,9.76-6.96c1.95-5.23-0.29-7.97-1.32-8.89c9.27,3.91,2.84,14.34-3.9,21.83
					C140.1,248.51,153.98,257.89,152.96,265.36z"/>
				<path id="XMLID_746_" class="st38" d="M116.46,284.17l-12.35,4.37c-3.48-2.61-5.78-4.35-5.78-4.37c0.13,0-1.38-3.46,6.69-7.7
					c0.05-0.02,0.1-0.05,0.15-0.08c5.33-0.84,8.37-3.09,6.53-7.75c-4.52-11.51,12.56-10.83,11.88-21.98c0,0,3.06,8.62-5.6,13.33
					C108.42,265.18,125.7,277.27,116.46,284.17z"/>
				<path id="XMLID_745_" class="st33" d="M148.46,239.94c-1.14-4.72-7.97-2.21-2.59,6.15L148.46,239.94z"/>
				<path id="XMLID_744_" class="st39" d="M144.55,244.52c0,0-0.02,0.15-0.05,0.44c-0.03,0.29-0.09,0.71-0.07,1.25
					c-0.02,0.54,0.04,1.19,0.13,1.93c0.11,0.74,0.26,1.57,0.48,2.47c0.21,0.9,0.48,1.86,0.77,2.88c0.29,1.02,0.61,2.1,0.86,3.24
					c0.25,1.14,0.48,2.34,0.48,3.58c0,1.24-0.19,2.54-0.79,3.69c-0.58,1.14-1.37,2.12-2.16,3.05c-0.8,0.93-1.62,1.8-2.41,2.65
					c-1.57,1.69-3.02,3.29-3.99,4.85c-0.48,0.78-0.86,1.53-1.12,2.23c-0.26,0.7-0.39,1.34-0.45,1.87c-0.03,0.27-0.05,0.51-0.04,0.71
					c-0.01,0.21-0.01,0.39,0.01,0.53c0.02,0.29,0.03,0.44,0.03,0.44s-0.02-0.15-0.06-0.44c-0.03-0.14-0.04-0.32-0.05-0.53
					c-0.02-0.21-0.02-0.45,0-0.73c0.03-0.54,0.13-1.2,0.36-1.93c0.22-0.73,0.57-1.52,1.05-2.33c0.94-1.62,2.33-3.31,3.9-5.02
					c0.78-0.86,1.59-1.74,2.37-2.66c0.77-0.92,1.53-1.9,2.06-2.97c0.27-0.52,0.49-1.08,0.59-1.67l0.1-0.43l0.04-0.44
					c0.02-0.3,0.06-0.59,0.04-0.89c0.01-1.19-0.19-2.36-0.43-3.48c-0.49-2.24-1.1-4.33-1.46-6.15c-0.19-0.91-0.31-1.76-0.38-2.51
					c-0.05-0.76-0.08-1.42-0.03-1.96c0.01-0.55,0.1-0.96,0.15-1.25C144.53,244.68,144.55,244.52,144.55,244.52z"/>
				<g id="XMLID_743_">
					<path class="st39" d="M111.36,279.7c-0.12,0-0.23-0.07-0.27-0.19c-1.32-3.86,0.49-6.08,2.25-8.22
						c1.16-1.42,2.26-2.76,2.49-4.55c0.26-2.08-0.87-3.78-2.18-5.74c-1.52-2.28-3.25-4.86-3.25-8.74c0-4.4,3.7-7.46,6.67-9.93
						c1.89-1.56,3.51-2.91,3.51-4.08c0-0.16,0.13-0.28,0.28-0.28c0.16,0,0.28,0.13,0.28,0.28c0,1.43-1.64,2.79-3.72,4.51
						c-2.88,2.39-6.47,5.36-6.47,9.49c0,3.7,1.68,6.21,3.16,8.42c1.32,1.97,2.57,3.83,2.27,6.13c-0.25,1.95-1.45,3.42-2.61,4.84
						c-1.73,2.12-3.37,4.12-2.15,7.68c0.05,0.15-0.03,0.31-0.18,0.36C111.42,279.69,111.39,279.7,111.36,279.7z"/>
				</g>
				<g id="XMLID_742_">
					<path class="st39" d="M133.09,298.2c-0.07,0-0.13-0.02-0.19-0.07c-0.12-0.1-0.13-0.28-0.03-0.4c0.02-0.03,2.38-2.81,1.97-8.79
						c-0.13-1.94-1.78-3.85-3.53-5.86c-3.61-4.17-8.1-9.35-0.98-17.52c9.85-11.3,8.63-15.31,6.94-20.86l-0.21-0.69
						c-0.05-0.15,0.04-0.31,0.19-0.35c0.15-0.05,0.31,0.04,0.35,0.19l0.21,0.69c1.74,5.72,3,9.86-7.06,21.39
						c-6.79,7.79-2.66,12.56,0.98,16.77c1.81,2.09,3.52,4.07,3.67,6.2c0.43,6.24-2,9.09-2.11,9.2
						C133.25,298.17,133.17,298.2,133.09,298.2z"/>
				</g>
			</g>
			<g id="XMLID_512_">
				<g id="XMLID_730_">
					<path id="XMLID_738_" class="st40" d="M118.33,415.87c0,2.32-1.88,4.2-4.2,4.2c-2.32,0-4.2-1.88-4.2-4.2
						C109.93,410.32,118.33,410.31,118.33,415.87z"/>
					<path id="XMLID_735_" class="st35" d="M152.79,420.16c-5.55,0-5.56-8.4,0-8.4C158.34,411.75,158.34,420.16,152.79,420.16z"/>
					<path id="XMLID_734_" class="st40" d="M154.16,414.28h-2.49c0-4.69,0.76-10.04-4.33-10.04c-7.68,0-6.83-8.37-6.83-10.63H143
						C143,410.74,154.16,391.64,154.16,414.28z"/>
					<path id="XMLID_733_" class="st40" d="M130.68,420.16c5.55,0,5.56-8.4,0-8.4C125.13,411.75,125.12,420.16,130.68,420.16z"/>
					<path id="XMLID_732_" class="st40" d="M131.8,414.28h-2.49c0-22.71,11.16-3.47,11.16-20.67h2.49c0,1.52,1.07,10.63-6.83,10.63
						c-2.39,0-4.33,1.94-4.33,4.33V414.28z"/>
				</g>
				<g id="XMLID_727_">
					<g id="XMLID_729_">
						<path class="st41" d="M184.71,348.6c-14.35,16.04-44.4,14.43-57.98,13.42c-13.58-1.02-17.99-4.5-22.84-15.54
							c-4.84-11.04-10.95-38.37-9.25-52.97c2.03-17.46,19.87-16.63,27.22-12.74c13.96,7.37,14.52,22.21,24.56,46.52
							c8.17,19.78,23.19,20.53,33.67,21.12C182.8,348.56,184.71,348.6,184.71,348.6z"/>
						<path class="st22" d="M140.55,362.89c-5.81,0-10.75-0.37-13.85-0.6c-13.29-1-18.04-4.23-23.07-15.7
							c-4.92-11.22-10.98-38.46-9.27-53.12c0.72-6.2,3.57-10.78,8.24-13.23c6.15-3.23,14.58-2.27,19.39,0.28
							c10.13,5.35,13.24,14.49,17.96,28.34c1.83,5.38,3.91,11.48,6.73,18.32c8.06,19.52,22.64,20.34,33.28,20.94l0.14,0.01
							c2.67,0.15,4.58,0.18,4.6,0.18l0.62,0.01l-0.41,0.46C174.28,360.68,154.79,362.89,140.55,362.89z M111.7,278.75
							c-3.05,0-6.17,0.59-8.84,1.99c-4.56,2.4-7.23,6.7-7.94,12.8c-1.69,14.57,4.34,41.66,9.23,52.82
							c4.93,11.23,9.57,14.39,22.6,15.37c10.53,0.79,42.36,3.17,57.33-12.87c-0.78-0.02-2.22-0.07-4-0.17l-0.14-0.01
							c-10.19-0.57-25.58-1.43-33.78-21.29c-2.83-6.86-4.91-12.97-6.75-18.36c-4.67-13.72-7.76-22.78-17.69-28.02
							C119.14,279.65,115.47,278.75,111.7,278.75z"/>
					</g>
					<path id="XMLID_728_" class="st42" d="M184.71,348.6c-14.35,16.04-44.4,14.43-57.98,13.42c-13.58-1.02-17.99-4.5-22.84-15.54
						c-4.84-11.04-10.95-38.37-9.25-52.97c2.03-17.46,19.87-16.63,27.22-12.74c-1.6,0.04-3.86,0.61-6.34,2.83
						c-4.71,4.21,3.47,56.97,9.41,65.02c5.94,8.05,23.16,9.29,32.45,7.68c7.55-1.31,18.77-6.13,22.72-7.89
						C182.8,348.56,184.71,348.6,184.71,348.6z"/>
				</g>
			</g>
		</g>
	</g>
	<g id="XMLID_1231_">
		<g id="XMLID_1383_">
			<path class="st4" d="M302.33,315.58c80.32,0,75.77,0.5,76.09-1.1c8.36-42.25,8.96-41.84,6.62-41.84c-80.32,0-75.77-0.5-76.09,1.1
				C300.59,315.99,299.99,315.58,302.33,315.58z"/>
			<path class="st5" d="M362.44,316.18c-4.06,0-9.15-0.01-15.53-0.02c-10.63-0.02-25.2-0.05-44.58-0.05h-0.07
				c-0.46,0-0.96,0-1.31-0.42c-0.8-0.97-0.3-3.44,2.95-19.5c1.18-5.81,2.64-13.03,4.52-22.54c0.01-0.06,0.01-0.11,0.01-0.16
				c0.04-1.05,0.67-1.24,4.48-1.35c3.94-0.12,11.83-0.1,27.54-0.07c10.63,0.02,25.2,0.05,44.58,0.05h0.07c0.45,0,0.96,0,1.31,0.42
				c0.8,0.97,0.3,3.44-2.96,19.5c-1.18,5.81-2.64,13.03-4.52,22.54c-0.01,0.06-0.01,0.11-0.01,0.16c-0.04,1.05-0.67,1.24-4.47,1.35
				C372.11,316.16,368.37,316.18,362.44,316.18z M302.33,315.05c19.38,0,33.95,0.03,44.58,0.05c23.41,0.05,30.08,0.06,30.96-0.37
				c0-0.01,0-0.03,0-0.04c0-0.1,0.01-0.21,0.03-0.32c1.88-9.52,3.35-16.74,4.52-22.55c2.6-12.83,3.68-18.15,3.17-18.63
				c-0.05-0.04-0.31-0.04-0.49-0.04h-0.07c-19.38,0-33.95-0.03-44.58-0.05c-23.42-0.05-30.08-0.06-30.96,0.37c0,0.01,0,0.02,0,0.04
				c0,0.1-0.01,0.21-0.03,0.32c-1.88,9.52-3.35,16.74-4.52,22.55c-2.6,12.83-3.68,18.15-3.17,18.63c0.05,0.04,0.32,0.04,0.49,0.04
				H302.33z"/>
		</g>
		<g id="XMLID_1232_">
			<path id="XMLID_1382_" class="st43" d="M372.33,287.72c3.82,0,5.48,0.35,5.48-1.26c0-3.82,0.35-5.48-1.26-5.48
				c-3.82,0-5.48-0.35-5.48,1.26C371.06,286.07,370.72,287.72,372.33,287.72z"/>
			<path id="XMLID_1381_" class="st8" d="M335.72,287.72c26.95,0,27,0.52,27-1.26c0-3.82,0.35-5.48-1.26-5.48
				c-26.95,0-27-0.52-27,1.26v4.21C334.46,287.16,335.03,287.72,335.72,287.72z"/>
			<path id="XMLID_1380_" class="st9" d="M314.55,287.72c10.56,0,11.74,0.42,11.74-1.26c0-3.82,0.35-5.48-1.26-5.48
				c-10.56,0-11.74-0.42-11.74,1.26C313.29,286.07,312.94,287.72,314.55,287.72z"/>
			<path id="XMLID_1379_" class="st43" d="M370.31,297.07c3.82,0,5.48,0.35,5.48-1.26c0-3.82,0.35-5.48-1.26-5.48
				c-3.82,0-5.48-0.35-5.48,1.26C369.04,295.41,368.7,297.07,370.31,297.07z"/>
			<path id="XMLID_1378_" class="st8" d="M333.7,297.07c26.95,0,27,0.52,27-1.26c0-3.82,0.35-5.48-1.26-5.48
				c-26.95,0-27-0.52-27,1.26C332.44,295.41,332.09,297.07,333.7,297.07z"/>
			<path id="XMLID_1236_" class="st9" d="M312.53,297.07c10.56,0,11.74,0.42,11.74-1.26c0-3.82,0.35-5.48-1.26-5.48
				c-10.56,0-11.74-0.42-11.74,1.26C311.27,295.41,310.92,297.07,312.53,297.07z"/>
			<path id="XMLID_1235_" class="st43" d="M368.61,307.23c3.82,0,5.48,0.35,5.48-1.26c0-3.82,0.35-5.48-1.26-5.48
				c-3.82,0-5.48-0.35-5.48,1.26C367.34,305.58,367,307.23,368.61,307.23z"/>
			<path id="XMLID_1234_" class="st8" d="M332,307.23c26.95,0,27,0.52,27-1.26c0-3.82,0.35-5.48-1.26-5.48c-26.95,0-27-0.52-27,1.26
				C330.74,305.58,330.39,307.23,332,307.23z"/>
			<path id="XMLID_1233_" class="st9" d="M310.83,307.23c10.56,0,11.74,0.42,11.74-1.26c0-3.82,0.35-5.48-1.26-5.48
				c-10.56,0-11.74-0.42-11.74,1.26C309.57,305.58,309.22,307.23,310.83,307.23z"/>
		</g>
	</g>
</g>
</svg>
