<?xml version="1.0" encoding="UTF-8"?><svg xmlns="http://www.w3.org/2000/svg" xmlns:xlink="http://www.w3.org/1999/xlink" contentScriptType="text/ecmascript" width="375" zoomAndPan="magnify" contentStyleType="text/css" viewBox="0 0 375 374.999991" height="374.999991" preserveAspectRatio="xMidYMid meet" version="1.0"><path fill="rgb(19.999695%, 17.248535%, 32.939148%)" d="M 39.015625 50.320312 L 75.765625 50.320312 L 75.765625 371.285156 L 39.015625 371.285156 Z M 39.015625 50.320312 " fill-opacity="1" fill-rule="nonzero"/><path fill="rgb(19.999695%, 17.248535%, 32.939148%)" d="M 86.46875 3.621094 L 123.21875 3.621094 L 123.21875 283.339844 L 86.46875 283.339844 Z M 86.46875 3.621094 " fill-opacity="1" fill-rule="nonzero"/><path fill="rgb(19.999695%, 17.248535%, 32.939148%)" d="M 85.734375 336.417969 L 337.691406 336.417969 L 337.691406 371.667969 L 85.734375 371.667969 Z M 85.734375 336.417969 " fill-opacity="1" fill-rule="nonzero"/><path fill="rgb(19.999695%, 17.248535%, 32.939148%)" d="M 129.179688 292.355469 L 337.640625 292.355469 L 337.640625 327.605469 L 129.179688 327.605469 Z M 129.179688 292.355469 " fill-opacity="1" fill-rule="nonzero"/><path fill="rgb(19.999695%, 17.248535%, 32.939148%)" d="M 75.484375 22.433594 L 75.46875 21.53125 L 75.214844 4.800781 L 75.210938 4.285156 L 74.691406 4.277344 L 57.144531 3.964844 L 56.09375 3.941406 L 38.691406 3.632812 L 37.5 3.609375 L 37.523438 4.800781 L 37.832031 21.53125 L 37.847656 22.433594 L 38.167969 39.277344 L 38.175781 39.796875 L 38.691406 39.804688 L 56.09375 40.058594 L 57.144531 40.074219 L 75.757812 40.347656 Z M 73.898438 21.53125 L 73.882812 22.433594 L 73.644531 38.25 L 57.144531 38.484375 L 56.09375 38.5 L 39.226562 38.746094 L 39.53125 22.433594 L 39.546875 21.53125 L 39.832031 5.949219 L 56.09375 5.660156 L 57.144531 5.648438 L 74.140625 5.34375 Z M 73.898438 21.53125 " fill-opacity="1" fill-rule="nonzero"/><path fill="rgb(19.999695%, 17.248535%, 32.939148%)" d="M 122.9375 311.183594 L 122.921875 310.277344 L 122.667969 293.550781 L 122.664062 293.03125 L 122.144531 293.023438 L 104.597656 292.714844 L 103.546875 292.691406 L 86.144531 292.378906 L 84.953125 292.359375 L 84.976562 293.550781 L 85.285156 310.277344 L 85.300781 311.183594 L 85.621094 328.027344 L 85.628906 328.546875 L 86.144531 328.554688 L 103.546875 328.804688 L 104.597656 328.820312 L 123.210938 329.09375 Z M 121.351562 310.277344 L 121.335938 311.183594 L 121.097656 326.996094 L 104.597656 327.234375 L 103.546875 327.25 L 86.679688 327.496094 L 86.984375 311.183594 L 87 310.277344 L 87.285156 294.699219 L 103.546875 294.410156 L 104.597656 294.394531 L 121.59375 294.09375 Z M 121.351562 310.277344 " fill-opacity="1" fill-rule="nonzero"/></svg>